<svg xmlns="http://www.w3.org/2000/svg" xmlns:xlink="http://www.w3.org/1999/xlink" viewBox="30 0 460 80" width="280" height="80">
  <g transform="translate(-460 -240)">
    <path d="M480 260h400v58.33H480z" fill="none"/>
    <use xlink:href="#a" transform="translate(492.69 296.61)"/>
    <use xlink:href="#b" transform="translate(656.247 296.61)"/>
    <use xlink:href="#c" transform="translate(676 296.61)"/>
    <defs>
      <path fill="#153c60" d="M199 0l-22-63H83L61 0H9l90-248h61L250 0h-51zm-33-102l-36-108c-10 38-24 72-36 108h72" id="d"/>
      <path fill="#153c60" d="M121-226c-27-7-43 5-38 36h38v33H83V0H34v-157H6v-33h28c-9-59 32-81 87-68v32" id="e"/>
      <path fill="#153c60" d="M25-224v-37h50v37H25zM25 0v-190h50V0H25" id="f"/>
      <path fill="#153c60" d="M135-194c87-1 58 113 63 194h-50c-7-57 23-157-34-157-59 0-34 97-39 157H25l-1-190h47c2 12-1 28 3 38 12-26 28-41 61-42" id="g"/>
      <path fill="#153c60" d="M24-248c93 1 206-16 204 79-1 75-69 88-152 82V0H24v-248zm52 121c47 0 100 7 100-41 0-47-54-39-100-39v80" id="h"/>
      <path fill="#153c60" d="M133-34C117-15 103 5 69 4 32 3 11-16 11-54c-1-60 55-63 116-61 1-26-3-47-28-47-18 1-26 9-28 27l-52-2c7-38 36-58 82-57s74 22 75 68l1 82c-1 14 12 18 25 15v27c-30 8-71 5-69-32zm-48 3c29 0 43-24 42-57-32 0-66-3-65 30 0 17 8 27 23 27" id="i"/>
      <path fill="#153c60" d="M123 10C108 53 80 86 19 72V37c35 8 53-11 59-39L3-190h52l48 148c12-52 28-100 44-148h51" id="j"/>
      <g id="a">
        <use transform="scale(.09877)" xlink:href="#d"/>
        <use transform="matrix(.09877 0 0 .09877 25.58 0)" xlink:href="#e"/>
        <use transform="matrix(.09877 0 0 .09877 37.333 0)" xlink:href="#e"/>
        <use transform="matrix(.09877 0 0 .09877 49.086 0)" xlink:href="#f"/>
        <use transform="matrix(.09877 0 0 .09877 58.963 0)" xlink:href="#g"/>
        <use transform="matrix(.09877 0 0 .09877 80.593 0)" xlink:href="#f"/>
        <use transform="matrix(.09877 0 0 .09877 90.47 0)" xlink:href="#h"/>
        <use transform="matrix(.09877 0 0 .09877 114.173 0)" xlink:href="#i"/>
        <use transform="matrix(.09877 0 0 .09877 133.926 0)" xlink:href="#j"/>
      </g>
      <path fill="#153c60" d="M27 80v-341h46V80H27" id="k"/>
      <use transform="scale(.09877)" xlink:href="#k" id="b"/>
      <path fill="#5caf7b" d="M24-248c120-7 223 5 221 122C244-46 201 0 124 0H24v-248zM76-40c74 7 117-18 117-86 0-67-45-88-117-82v168" id="l"/>
      <path fill="#5caf7b" d="M185-48c-13 30-37 53-82 52C43 2 14-33 14-96s30-98 90-98c62 0 83 45 84 108H66c0 31 8 55 39 56 18 0 30-7 34-22zm-45-69c5-46-57-63-70-21-2 6-4 13-4 21h74" id="m"/>
      <path fill="#5caf7b" d="M128 0H69L1-190h53L99-40l48-150h52" id="n"/>
      <path fill="#5caf7b" d="M25 0v-261h50V0H25" id="o"/>
      <path fill="#5caf7b" d="M110-194c64 0 96 36 96 99 0 64-35 99-97 99-61 0-95-36-95-99 0-62 34-99 96-99zm-1 164c35 0 45-28 45-65 0-40-10-65-43-65-34 0-45 26-45 65 0 36 10 65 43 65" id="p"/>
      <path fill="#5caf7b" d="M135-194c53 0 70 44 70 98 0 56-19 98-73 100-31 1-45-17-59-34 3 33 2 69 2 105H25l-1-265h48c2 10 0 23 3 31 11-24 29-35 60-35zM114-30c33 0 39-31 40-66 0-38-9-64-40-64-56 0-55 130 0 130" id="q"/>
      <path fill="#5caf7b" d="M135-150c-39-12-60 13-60 57V0H25l-1-190h47c2 13-1 29 3 40 6-28 27-53 61-41v41" id="r"/>
      <path fill="#5caf7b" d="M137-138c1-29-70-34-71-4 15 46 118 7 119 86 1 83-164 76-172 9l43-7c4 19 20 25 44 25 33 8 57-30 24-41C81-84 22-81 20-136c-2-80 154-74 161-7" id="s"/>
      <g id="c">
        <use transform="scale(.09877)" xlink:href="#l"/>
        <use transform="matrix(.09877 0 0 .09877 25.58 0)" xlink:href="#m"/>
        <use transform="matrix(.09877 0 0 .09877 45.333 0)" xlink:href="#n"/>
        <use transform="matrix(.09877 0 0 .09877 65.086 0)" xlink:href="#m"/>
        <use transform="matrix(.09877 0 0 .09877 84.84 0)" xlink:href="#o"/>
        <use transform="matrix(.09877 0 0 .09877 94.716 0)" xlink:href="#p"/>
        <use transform="matrix(.09877 0 0 .09877 116.346 0)" xlink:href="#q"/>
        <use transform="matrix(.09877 0 0 .09877 137.975 0)" xlink:href="#m"/>
        <use transform="matrix(.09877 0 0 .09877 157.728 0)" xlink:href="#r"/>
        <use transform="matrix(.09877 0 0 .09877 171.556 0)" xlink:href="#s"/>
      </g>
    </defs>
  </g>
</svg>
