<svg xmlns="http://www.w3.org/2000/svg" viewBox="0 0 36 36"><title>icn_information</title><path d="M18,0A18,18,0,1,1,5.3,30.7h0a18,18,0,0,1,0-25.4h0A18,18,0,0,1,18,0Zm0,32.4A14.4,14.4,0,1,0,7.8,7.8h0a14.4,14.4,0,0,0,0,20.4h0A14.4,14.4,0,0,0,18,32.4ZM19.8,9.3A1.8,1.8,0,1,0,18,11.2,1.8,1.8,0,0,0,19.8,9.3ZM17.4,28.4a4.6,4.6,0,0,0,1.9-.4c1-.4,2.3-1.8,2.3-2.7l-1.5-1.1H20a2.3,2.3,0,0,1-2,1.9h0l-.4-.2s0-.2,0-.2l2.3-11.9H14.4l-.9,2.7h2.7l-2.2,9h0a2.3,2.3,0,0,0,.9,1.8l.6.3A4,4,0,0,0,17.4,28.4Z" style="fill:#0680fb"/></svg>
