<svg xmlns="http://www.w3.org/2000/svg" xmlns:xlink="http://www.w3.org/1999/xlink" width="1400" height="1400" viewBox="0 0 1400 1400"><g transform="translate(-199.99999999999997 -40)"><path d="M829 1034.42V844.36" stroke="#999" stroke-width="10" fill="none"/><path d="M829 844.36l4.64 14.27h-9.28z" stroke="#999" stroke-width="10" fill="#999"/><path d="M778.37 672.07V811H959.4V672.07H778.38zm172 127.68h-165.3V701.1h165.3v98.65z" fill="#57b177"/><path d="M855.85 719.17h-55.03v62.66h55.03v-62.66zM934.6 772.93h-59v8.9h59v-8.9zM934.6 755h-59v8.9h59V755zM934.6 737.1h-59v8.88h59v-8.9zM934.6 719.17h-59v8.9h59v-8.9z" fill="#57b177"/><path d="M735.77 621.67c0-2.77 2.24-5 5-5h254.46c2.76 0 5 2.23 5 5v45.4c0 2.76-2.24 5-5 5H740.77c-2.76 0-5-2.24-5-5z" fill="none"/><use xlink:href="#a" transform="matrix(1,0,0,1,740.7693034387203,621.6655391883526) translate(22.12962962962962 28.333333333333336)"/><use xlink:href="#b" transform="matrix(1,0,0,1,740.7693034387203,621.6655391883526) translate(88.12962962962963 28.333333333333336)"/><path d="M653.17 696.34L376.83 420" stroke="#999" stroke-width="10" fill="none"/><path d="M376.83 420l13.37 6.8-6.56 6.57z" stroke="#999" stroke-width="10" fill="#999"/><path d="M480 380l236.87 236.87" stroke="#999" stroke-width="10" fill="none"/><path d="M716.87 616.87l-13.36-6.8 6.56-6.56z" stroke="#999" stroke-width="10" fill="#999"/><path d="M1006 623l220.06-220" stroke="#999" stroke-width="10" fill="none"/><path d="M1226.06 403l-6.82 13.36-6.55-6.55z" stroke="#999" stroke-width="10" fill="#999"/><path d="M1303 460l-202 202" stroke="#999" stroke-width="10" fill="none"/><path d="M1101 662l6.8-13.36 6.56 6.55z" stroke="#999" stroke-width="10" fill="#999"/><path d="M909 829.94V1020" stroke="#999" stroke-width="10" fill="none"/><path d="M909 1020l-4.64-14.27h9.28z" stroke="#999" stroke-width="10" fill="#999"/><path d="M900.35 1109c0 15.68-14.63 28.35-32.67 28.35-18.12 0-32.75-12.67-32.75-28.34 0-15.66 14.63-28.33 32.75-28.33 18.04 0 32.67 12.67 32.67 28.34zM839.62 1140.14h56.77c17.48 0 17.48 0 17.48 15.25 0 15.23 0 15.23-17.5 15.23h-56.76c-17.48 0-17.48 0-17.48-15.24 0-15.26 0-15.26 17.48-15.26z" fill="#57b177"/><path d="M843.48 1165.7h48.3v62.9h-48.3v-62.9z" fill="#57b177"/><path d="M843.48 1226.24h21.8v69.35h-21.8v-69.36zM871.55 1226.88h20.24v68.28h-20.25v-68.28zM822.32 1151.52h16.56v60.76h-16.56v-60.76zM897.04 1152.38h16.74v60.76h-16.74v-60.76z" fill="#57b177"/><use xlink:href="#c" transform="matrix(1,0,0,1,792.136415165638,1265.3732266867419) translate(76.5 21.6666666666666)"/><path d="M1021.85 1108.4h-76.42c-1.34 0-2.78.98-2.78 2.34v42.05c0 1.15 1.1 3 2.78 3h32.6v4.45c0 1.45-2.46 4.07-4.35 4.07h-5.45c-6 0-10.34 1.35-10.34 4.26 0 1.36-.24 1.36 5.66 1.36h3c4.67 0 5.45-2.33 10.12-2.33h11.68c4.56 0 8.12 2.34 11.13 2.34h3c6 0 6-.2 6-1.36 0-2.62-4.67-4.26-10.57-4.26h-5.56c-1.56 0-3.78-2.62-3.78-4.07v-4.46h32.7c1.32 0 2.66-1.66 2.66-3v-42.06c.67-1.17-.45-2.33-2.1-2.33zm-5.34 40.12h-65.4v-33.04h65.4v33.04z" fill="#57b177"/><path d="M937.42 1145.9v-35.16c0-3.78 3.56-7.08 8.23-7.08h21.7v-25.87c0-2.62-2.46-4.75-5.46-4.75h-43.5c-3 0-5.45 2.13-5.45 4.74v91.94H953v-1.65c0-1.65.55-5.92 7.56-8.05H921.4v-4.74h17.24c-.67-.96-.9-2.13-.9-3v-1.65H921.4v-4.74h16.02zm-16.24-61.03h38.04v6.97h-38.04v-6.97z" fill="#57b177"/><path d="M779.54 1309.6c0-2.77 2.24-5 5-5H1039c2.76 0 5 2.23 5 5v45.4c0 2.76-2.24 5-5 5H784.54c-2.76 0-5-2.24-5-5z" fill="none"/><use xlink:href="#d" transform="matrix(1,0,0,1,784.5386068774405,1309.5940047898707) translate(97.9074074074074 28.333333333333336)"/><path d="M436.1 266.8H268.82c-3.8 0-6.88 2.92-6.88 6.74v41.48c0 4 3.08 6.9 6.88 6.9H436.1c3.8 0 6.88-2.9 6.88-6.9v-41.48c0-3.82-2.9-6.73-6.88-6.73zm-158.95 48.4c-3.44 0-6.52-3.1-6.52-6.55 0-3.46 3.08-6.37 6.52-6.37 3.62 0 6.52 2.9 6.52 6.37 0 3.46-3.08 6.55-6.52 6.55zm152.43-2.73H393c-1.43 0-2.16-.73-2.16-2s.73-2.18 2.17-2.18h36.58c1.27 0 2.18.9 2.18 2.17s-.9 2-2.18 2zm0-6.73H393c-1.43 0-2.16-.9-2.16-2.18 0-1.28.73-2.2 2.17-2.2h36.58c1.27 0 2.18.92 2.18 2.2 0 1.27-.9 2.18-2.18 2.18zm0-6.9H393c-1.43 0-2.16-.74-2.16-2.2 0-1.27.73-2 2.17-2h36.58c1.27 0 2.18.73 2.18 2 0 1.28-.9 2.2-2.18 2.2zM436.1 203.3H268.82c-3.8 0-6.88 3.1-6.88 6.93v41.48c0 3.83 3.08 6.92 6.88 6.92H436.1c3.8 0 6.88-3.1 6.88-6.9v-41.5c0-3.82-2.9-6.9-6.88-6.9zm-158.95 48.4c-3.44 0-6.52-2.9-6.52-6.36 0-3.46 3.08-6.37 6.52-6.37 3.62 0 6.52 2.9 6.52 6.37 0 3.45-3.08 6.37-6.52 6.37zm152.43-2.54H393c-1.43 0-2.16-.73-2.16-2.2 0-1.26.73-2 2.17-2h36.58c1.27 0 2.18.74 2.18 2 0 1.3-.9 2.2-2.18 2.2zm0-6.73H393c-1.43 0-2.16-.9-2.16-2.2 0-1.26.73-2.17 2.17-2.17h36.58c1.27 0 2.18.9 2.18 2.18 0 1.28-.9 2.2-2.18 2.2zm0-6.92H393c-1.43 0-2.16-.9-2.16-2.17s.73-2.18 2.17-2.18h36.58c1.27 0 2.18.9 2.18 2.18 0 1.27-.9 2.18-2.18 2.18zM436.1 140H268.82c-3.8 0-6.88 2.9-6.88 6.9v41.5c0 3.8 3.08 6.72 6.88 6.72H436.1c3.8 0 6.88-2.9 6.88-6.73v-41.5c0-3.8-2.9-6.9-6.88-6.9zm-158.95 48.4c-3.44 0-6.52-2.92-6.52-6.37 0-3.46 3.08-6.55 6.52-6.55 3.62 0 6.52 3.1 6.52 6.55 0 3.45-3.08 6.36-6.52 6.36zm152.43-2.55H393c-1.43 0-2.16-.9-2.16-2.2 0-1.26.73-2.17 2.17-2.17h36.58c1.27 0 2.18.9 2.18 2.18 0 1.28-.9 2.2-2.18 2.2zm0-6.92H393c-1.43 0-2.16-.72-2.16-2.18 0-1.27.73-2 2.17-2h36.58c1.27 0 2.18.73 2.18 2 0 1.46-.9 2.18-2.18 2.18zm0-6.73H393c-1.43 0-2.16-.9-2.16-2.18 0-1.28.73-2.18 2.17-2.18h36.58c1.27 0 2.18.9 2.18 2.18 0 .9-.9 2.18-2.18 2.18z" fill="#57b177"/><path d="M220 65c0-2.76 2.24-5 5-5h254.46c2.76 0 5 2.24 5 5v64c0 2.76-2.24 5-5 5H225c-2.76 0-5-2.24-5-5z" fill="none"/><use xlink:href="#e" transform="matrix(1,0,0,1,224.99999999999997,65) translate(68.38888888888889 21.333333333333336)"/><use xlink:href="#f" transform="matrix(1,0,0,1,224.99999999999997,65) translate(29.240740740740733 53.333333333333336)"/><use xlink:href="#g" transform="matrix(1,0,0,1,224.99999999999997,65) translate(181.38888888888889 53.333333333333336)"/><path d="M1418.1 266.88h-167.28c-3.8 0-6.88 2.9-6.88 6.73v41.5c0 4 3.08 6.9 6.88 6.9h167.28c3.8 0 6.88-2.9 6.88-6.9v-41.5c0-3.8-2.9-6.72-6.88-6.72zm-158.95 48.4c-3.44 0-6.52-3.1-6.52-6.56 0-3.46 3.08-6.37 6.52-6.37 3.62 0 6.52 2.9 6.52 6.37 0 3.46-3.08 6.55-6.52 6.55zm152.43-2.74H1375c-1.43 0-2.16-.73-2.16-2 0-1.28.73-2.18 2.17-2.18h36.58c1.27 0 2.18.9 2.18 2.18 0 1.27-.9 2-2.18 2zm0-6.73H1375c-1.43 0-2.16-.9-2.16-2.17 0-1.28.73-2.2 2.17-2.2h36.58c1.27 0 2.18.92 2.18 2.2 0 1.27-.9 2.18-2.18 2.18zm0-6.9H1375c-1.43 0-2.16-.73-2.16-2.2 0-1.26.73-2 2.17-2h36.58c1.27 0 2.18.74 2.18 2 0 1.3-.9 2.2-2.18 2.2zM1418.1 203.38h-167.28c-3.8 0-6.88 3.1-6.88 6.9v41.5c0 3.82 3.08 6.9 6.88 6.9h167.28c3.8 0 6.88-3.08 6.88-6.9v-41.5c0-3.8-2.9-6.9-6.88-6.9zm-158.95 48.4c-3.44 0-6.52-2.92-6.52-6.37s3.08-6.36 6.52-6.36c3.62 0 6.52 2.9 6.52 6.37 0 3.46-3.08 6.37-6.52 6.37zm152.43-2.55H1375c-1.43 0-2.16-.73-2.16-2.2 0-1.26.73-2 2.17-2h36.58c1.27 0 2.18.74 2.18 2 0 1.3-.9 2.2-2.18 2.2zm0-6.73H1375c-1.43 0-2.16-.9-2.16-2.2 0-1.26.73-2.17 2.17-2.17h36.58c1.27 0 2.18.9 2.18 2.18 0 1.3-.9 2.2-2.18 2.2zm0-6.92H1375c-1.43 0-2.16-.9-2.16-2.18 0-1.27.73-2.18 2.17-2.18h36.58c1.27 0 2.18.9 2.18 2.18 0 1.27-.9 2.18-2.18 2.18zM1418.1 140.07h-167.28c-3.8 0-6.88 2.9-6.88 6.9v41.5c0 3.8 3.08 6.72 6.88 6.72h167.28c3.8 0 6.88-2.92 6.88-6.74v-41.48c0-3.82-2.9-6.9-6.88-6.9zm-158.95 48.4c-3.44 0-6.52-2.92-6.52-6.37 0-3.46 3.08-6.55 6.52-6.55 3.62 0 6.52 3.1 6.52 6.55 0 3.45-3.08 6.36-6.52 6.36zm152.43-2.55H1375c-1.43 0-2.16-.9-2.16-2.2 0-1.26.73-2.17 2.17-2.17h36.58c1.27 0 2.18.9 2.18 2.18 0 1.28-.9 2.2-2.18 2.2zm0-6.92H1375c-1.43 0-2.16-.72-2.16-2.18 0-1.27.73-2 2.17-2h36.58c1.27 0 2.18.73 2.18 2 0 1.46-.9 2.18-2.18 2.18zm0-6.73H1375c-1.43 0-2.16-.9-2.16-2.18 0-1.3.73-2.2 2.17-2.2h36.58c1.27 0 2.18.9 2.18 2.2 0 .9-.9 2.17-2.18 2.17z" fill="#57b177"/><path d="M1202 85.07c0-2.76 2.24-5 5-5h254.46c2.76 0 5 2.24 5 5v64c0 2.76-2.24 5-5 5H1207c-2.76 0-5-2.24-5-5z" fill="none"/><use xlink:href="#h" transform="matrix(1,0,0,1,1207,85.06986647420246) translate(8.611111111111086 37.333333333333336)"/><use xlink:href="#i" transform="matrix(1,0,0,1,1207,85.06986647420246) translate(202.01851851851853 37.333333333333336)"/><path d="M537.65 991.27c0-2.76 2.24-5 5-5H817c2.76 0 5 2.24 5 5v133.06c0 2.76-2.24 5-5 5H542.65c-2.76 0-5-2.24-5-5z" fill="none"/><use xlink:href="#j" transform="matrix(1,0,0,1,542.6470588235295,991.2666235401065) translate(29.01234567901342 44.777777777778)"/><use xlink:href="#k" transform="matrix(1,0,0,1,542.6470588235295,991.2666235401065) translate(131.29629629629636 44.777777777778)"/><use xlink:href="#l" transform="matrix(1,0,0,1,542.6470588235295,991.2666235401065) translate(189.25925925925873 44.777777777778)"/><use xlink:href="#m" transform="matrix(1,0,0,1,542.6470588235295,991.2666235401065) translate(220.12345679012265 44.777777777778)"/><use xlink:href="#n" transform="matrix(1,0,0,1,542.6470588235295,991.2666235401065) translate(7.006172839507457 71.4444444444444)"/><use xlink:href="#o" transform="matrix(1,0,0,1,542.6470588235295,991.2666235401065) translate(100.27777777777814 71.4444444444444)"/><use xlink:href="#p" transform="matrix(1,0,0,1,542.6470588235295,991.2666235401065) translate(191.57407407407354 71.4444444444444)"/><use xlink:href="#q" transform="matrix(1,0,0,1,542.6470588235295,991.2666235401065) translate(19.135802469136976 98.1111111111108)"/><use xlink:href="#r" transform="matrix(1,0,0,1,542.6470588235295,991.2666235401065) translate(100.55555555555593 98.1111111111108)"/><use xlink:href="#s" transform="matrix(1,0,0,1,542.6470588235295,991.2666235401065) translate(149.87654320987644 98.1111111111108)"/><path d="M474.65 1022.6c0-2.76 2.24-5 5-5h70c2.76 0 5 2.24 5 5v51.67c0 2.76-2.24 5-5 5h-70c-2.76 0-5-2.24-5-5z" fill="none"/><use xlink:href="#t" transform="matrix(1,0,0,1,479.6470588235295,1022.5999568734403) translate(22.654320987654323 35.55555555555556)"/><path d="M579.74 385c0-2.76 2.24-5 5-5H871c2.76 0 5 2.24 5 5v126.8c0 2.76-2.24 5-5 5H584.74c-2.76 0-5-2.24-5-5z" fill="none"/><use xlink:href="#u" transform="matrix(1,0,0,1,584.7385086823289,385) translate(36.833333333334394 41.277777777778)"/><use xlink:href="#v" transform="matrix(1,0,0,1,584.7385086823289,385) translate(151.46296296296288 41.277777777778)"/><use xlink:href="#w" transform="matrix(1,0,0,1,584.7385086823289,385) translate(20.135802469137033 67.9444444444444)"/><use xlink:href="#x" transform="matrix(1,0,0,1,584.7385086823289,385) translate(104.08641975308682 67.9444444444444)"/><use xlink:href="#y" transform="matrix(1,0,0,1,584.7385086823289,385) translate(229.82716049382628 67.9444444444444)"/><use xlink:href="#z" transform="matrix(1,0,0,1,584.7385086823289,385) translate(7.728395061729742 94.6111111111108)"/><use xlink:href="#A" transform="matrix(1,0,0,1,584.7385086823289,385) translate(117.60493827160519 94.6111111111108)"/><use xlink:href="#B" transform="matrix(1,0,0,1,584.7385086823289,385) translate(165.75308641975286 94.6111111111108)"/><use xlink:href="#C" transform="matrix(1,0,0,1,584.7385086823289,385) translate(190.44444444444397 94.6111111111108)"/><path d="M540 405c0-2.76 2.24-5 5-5h73.35c2.76 0 5 2.24 5 5v53.33c0 2.76-2.24 5-5 5H545c-2.76 0-5-2.24-5-5z" fill="none"/><g><use xlink:href="#D" transform="matrix(1,0,0,1,545,404.99999999999994) translate(24.654320987654323 35.888888888888886)"/></g><path d="M966.4 865c0-2.76 2.25-5 5-5h286.28c2.76 0 5 2.24 5 5v126.8c0 2.76-2.24 5-5 5H971.4c-2.75 0-5-2.24-5-5z" fill="none"/><g><use xlink:href="#E" transform="matrix(1,0,0,1,971.4136874361594,865) translate(19.024691358025933 41.277777777778)"/><use xlink:href="#F" transform="matrix(1,0,0,1,971.4136874361594,865) translate(88.03703703703759 41.277777777778)"/><use xlink:href="#G" transform="matrix(1,0,0,1,971.4136874361594,865) translate(137.35802469135808 41.277777777778)"/><use xlink:href="#H" transform="matrix(1,0,0,1,971.4136874361594,865) translate(171.86419753086392 41.277777777778)"/><use xlink:href="#I" transform="matrix(1,0,0,1,971.4136874361594,865) translate(230.9382716049374 41.277777777778)"/><use xlink:href="#J" transform="matrix(1,0,0,1,971.4136874361594,865) translate(40.444444444445466 67.9444444444444)"/><use xlink:href="#K" transform="matrix(1,0,0,1,971.4136874361594,865) translate(142.85185185185185 67.9444444444444)"/><use xlink:href="#L" transform="matrix(1,0,0,1,971.4136874361594,865) translate(197.1728395061723 67.9444444444444)"/><use xlink:href="#M" transform="matrix(1,0,0,1,971.4136874361594,865) translate(16.462962962964227 94.6111111111108)"/><use xlink:href="#N" transform="matrix(1,0,0,1,971.4136874361594,865) translate(111.46296296296329 94.6111111111108)"/><use xlink:href="#O" transform="matrix(1,0,0,1,971.4136874361594,865) translate(143.5 94.6111111111108)"/><use xlink:href="#P" transform="matrix(1,0,0,1,971.4136874361594,865) translate(192.75925925925878 94.6111111111108)"/></g><path d="M914 885c0-2.76 2.24-5 5-5h73.35c2.76 0 5 2.24 5 5v53.33c0 2.76-2.24 5-5 5H919c-2.76 0-5-2.24-5-5z" fill="none"/><g><use xlink:href="#Q" transform="matrix(1,0,0,1,919,885.0000000000001) translate(24.654320987654323 35.888888888888886)"/></g><path d="M1244 468c0-2.76 2.24-5 5-5h286.26c2.76 0 5 2.24 5 5v150c0 2.76-2.24 5-5 5H1249c-2.76 0-5-2.24-5-5z" fill="none"/><g><use xlink:href="#R" transform="matrix(1,0,0,1,1249,468) translate(77.45061728395127 79.4444444444444)"/><use xlink:href="#S" transform="matrix(1,0,0,1,1249,468) translate(155.2283950617283 79.4444444444444)"/></g><path d="M1244 528c0-2.76 2.24-5 5-5h73.35c2.76 0 5 2.24 5 5v53.33c0 2.76-2.24 5-5 5H1249c-2.76 0-5-2.24-5-5z" fill="none"/><g><use xlink:href="#T" transform="matrix(1,0,0,1,1249,528) translate(24.654320987654323 35.888888888888886)"/></g><path d="M963.68 395c0-2.76 2.23-5 5-5h154c2.76 0 5 2.24 5 5v117c0 2.76-2.24 5-5 5h-154c-2.77 0-5-2.24-5-5z" fill="none"/><g><use xlink:href="#U" transform="matrix(1,0,0,1,968.6751787538306,395) translate(6.907407407408101 22.944444444444798)"/><use xlink:href="#V" transform="matrix(1,0,0,1,968.6751787538306,395) translate(73.08024691358028 22.944444444444798)"/><use xlink:href="#W" transform="matrix(1,0,0,1,968.6751787538306,395) translate(2.37037037037112 49.6111111111112)"/><use xlink:href="#X" transform="matrix(1,0,0,1,968.6751787538306,395) translate(47.92592592592622 49.6111111111112)"/><use xlink:href="#B" transform="matrix(1,0,0,1,968.6751787538306,395) translate(27.70987654321037 76.2777777777776)"/><use xlink:href="#Y" transform="matrix(1,0,0,1,968.6751787538306,395) translate(52.40123456790148 76.2777777777776)"/><use xlink:href="#Z" transform="matrix(1,0,0,1,968.6751787538306,395) translate(9.09876543209944 102.944444444444)"/></g><path d="M902 395c0-2.76 2.24-5 5-5h73.35c2.76 0 5 2.24 5 5v53.33c0 2.76-2.24 5-5 5H907c-2.76 0-5-2.24-5-5z" fill="none"/><g><use xlink:href="#aa" transform="matrix(1,0,0,1,907,395) translate(24.654320987654323 35.888888888888886)"/></g><path d="M398.96 564c0-2.76 2.24-5 5-5H575c2.76 0 5 2.24 5 5v210c0 2.76-2.24 5-5 5H403.96c-2.76 0-5-2.24-5-5z" fill="none"/><g><use xlink:href="#ab" transform="matrix(1,0,0,1,403.95931477516064,564) translate(56.0000000000003 69.4444444444448)"/><use xlink:href="#ac" transform="matrix(1,0,0,1,403.95931477516064,564) translate(0.32098765432183995 96.1111111111112)"/><use xlink:href="#ad" transform="matrix(1,0,0,1,403.95931477516064,564) translate(112.48148148148121 96.1111111111112)"/><use xlink:href="#ae" transform="matrix(1,0,0,1,403.95931477516064,564) translate(21.987654320988284 122.7777777777776)"/><use xlink:href="#af" transform="matrix(1,0,0,1,403.95931477516064,564) translate(49.64197530864233 149.444444444444)"/></g><path d="M408.64 579.68c0-2.76 2.24-5 5-5h28.2c2.76 0 5 2.24 5 5v82.64c0 2.76-2.24 5-5 5h-28.2c-2.76 0-5-2.24-5-5z" fill="none"/><g><use xlink:href="#ag" transform="matrix(1,0,0,1,413.6387787574844,579.681416350058) translate(2.1543209876543212 50.388888888888886)"/></g><defs><path fill="#333" d="M146-102V0H94v-102L6-248h54l60 105 60-105h54" id="ah"/><path fill="#333" d="M110-194c64 0 96 36 96 99 0 64-35 99-97 99-61 0-95-36-95-99 0-62 34-99 96-99zm-1 164c35 0 45-28 45-65 0-40-10-65-43-65-34 0-45 26-45 65 0 36 10 65 43 65" id="ai"/><path fill="#333" d="M85 4C-2 5 27-109 22-190h50c7 57-23 150 33 157 60-5 35-97 40-157h50l1 190h-47c-2-12 1-28-3-38-12 25-28 42-61 42" id="aj"/><path fill="#333" d="M135-150c-39-12-60 13-60 57V0H25l-1-190h47c2 13-1 29 3 40 6-28 27-53 61-41v41" id="ak"/><g id="a"><use transform="matrix(0.07407407407407408,0,0,0.07407407407407408,0,0)" xlink:href="#ah"/><use transform="matrix(0.07407407407407408,0,0,0.07407407407407408,15.777777777777779,0)" xlink:href="#ai"/><use transform="matrix(0.07407407407407408,0,0,0.07407407407407408,32,0)" xlink:href="#aj"/><use transform="matrix(0.07407407407407408,0,0,0.07407407407407408,48.22222222222223,0)" xlink:href="#ak"/></g><path fill="#333" d="M199 0l-22-63H83L61 0H9l90-248h61L250 0h-51zm-33-102l-36-108c-10 38-24 72-36 108h72" id="al"/><path fill="#333" d="M135-194c53 0 70 44 70 98 0 56-19 98-73 100-31 1-45-17-59-34 3 33 2 69 2 105H25l-1-265h48c2 10 0 23 3 31 11-24 29-35 60-35zM114-30c33 0 39-31 40-66 0-38-9-64-40-64-56 0-55 130 0 130" id="am"/><path fill="#333" d="M25 0v-261h50V0H25" id="an"/><path fill="#333" d="M25-224v-37h50v37H25zM25 0v-190h50V0H25" id="ao"/><path fill="#333" d="M190-63c-7 42-38 67-86 67-59 0-84-38-90-98-12-110 154-137 174-36l-49 2c-2-19-15-32-35-32-30 0-35 28-38 64-6 74 65 87 74 30" id="ap"/><path fill="#333" d="M133-34C117-15 103 5 69 4 32 3 11-16 11-54c-1-60 55-63 116-61 1-26-3-47-28-47-18 1-26 9-28 27l-52-2c7-38 36-58 82-57s74 22 75 68l1 82c-1 14 12 18 25 15v27c-30 8-71 5-69-32zm-48 3c29 0 43-24 42-57-32 0-66-3-65 30 0 17 8 27 23 27" id="aq"/><path fill="#333" d="M115-3C79 11 28 4 28-45v-112H4v-33h27l15-45h31v45h36v33H77v99c-1 23 16 31 38 25v30" id="ar"/><path fill="#333" d="M135-194c87-1 58 113 63 194h-50c-7-57 23-157-34-157-59 0-34 97-39 157H25l-1-190h47c2 12-1 28 3 38 12-26 28-41 61-42" id="as"/><g id="b"><use transform="matrix(0.07407407407407408,0,0,0.07407407407407408,0,0)" xlink:href="#al"/><use transform="matrix(0.07407407407407408,0,0,0.07407407407407408,19.185185185185187,0)" xlink:href="#am"/><use transform="matrix(0.07407407407407408,0,0,0.07407407407407408,35.40740740740741,0)" xlink:href="#am"/><use transform="matrix(0.07407407407407408,0,0,0.07407407407407408,51.62962962962963,0)" xlink:href="#an"/><use transform="matrix(0.07407407407407408,0,0,0.07407407407407408,59.03703703703704,0)" xlink:href="#ao"/><use transform="matrix(0.07407407407407408,0,0,0.07407407407407408,66.44444444444444,0)" xlink:href="#ap"/><use transform="matrix(0.07407407407407408,0,0,0.07407407407407408,81.25925925925927,0)" xlink:href="#aq"/><use transform="matrix(0.07407407407407408,0,0,0.07407407407407408,96.07407407407408,0)" xlink:href="#ar"/><use transform="matrix(0.07407407407407408,0,0,0.07407407407407408,104.88888888888889,0)" xlink:href="#ao"/><use transform="matrix(0.07407407407407408,0,0,0.07407407407407408,112.29629629629629,0)" xlink:href="#ai"/><use transform="matrix(0.07407407407407408,0,0,0.07407407407407408,128.5185185185185,0)" xlink:href="#as"/></g><path fill="#333" d="M238-95c0 69-44 99-111 99C63 4 22-25 22-93v-155h51v151c-1 38 19 59 55 60 90 1 49-130 58-211h52v153" id="at"/><path fill="#333" d="M137-138c1-29-70-34-71-4 15 46 118 7 119 86 1 83-164 76-172 9l43-7c4 19 20 25 44 25 33 8 57-30 24-41C81-84 22-81 20-136c-2-80 154-74 161-7" id="au"/><path fill="#333" d="M185-48c-13 30-37 53-82 52C43 2 14-33 14-96s30-98 90-98c62 0 83 45 84 108H66c0 31 8 55 39 56 18 0 30-7 34-22zm-45-69c5-46-57-63-70-21-2 6-4 13-4 21h74" id="av"/><g id="d"><use transform="matrix(0.07407407407407408,0,0,0.07407407407407408,0,0)" xlink:href="#at"/><use transform="matrix(0.07407407407407408,0,0,0.07407407407407408,19.185185185185187,0)" xlink:href="#au"/><use transform="matrix(0.07407407407407408,0,0,0.07407407407407408,34,0)" xlink:href="#av"/><use transform="matrix(0.07407407407407408,0,0,0.07407407407407408,48.81481481481481,0)" xlink:href="#ak"/></g><path fill="#333" d="M230 0l2-204L168 0h-37L68-204 70 0H24v-248h70l56 185 57-185h69V0h-46" id="aw"/><path fill="#333" d="M114-157C55-157 80-60 75 0H25v-261h50l-1 109c12-26 28-41 61-42 86-1 58 113 63 194h-50c-7-57 23-157-34-157" id="ax"/><g id="e"><use transform="matrix(0.07407407407407408,0,0,0.07407407407407408,0,0)" xlink:href="#aw"/><use transform="matrix(0.07407407407407408,0,0,0.07407407407407408,22.148148148148152,0)" xlink:href="#av"/><use transform="matrix(0.07407407407407408,0,0,0.07407407407407408,36.96296296296297,0)" xlink:href="#ak"/><use transform="matrix(0.07407407407407408,0,0,0.07407407407407408,47.33333333333334,0)" xlink:href="#ap"/><use transform="matrix(0.07407407407407408,0,0,0.07407407407407408,62.14814814814816,0)" xlink:href="#ax"/><use transform="matrix(0.07407407407407408,0,0,0.07407407407407408,78.37037037037038,0)" xlink:href="#aq"/><use transform="matrix(0.07407407407407408,0,0,0.07407407407407408,93.18518518518519,0)" xlink:href="#as"/><use transform="matrix(0.07407407407407408,0,0,0.07407407407407408,109.40740740740742,0)" xlink:href="#ar"/></g><g id="f"><use transform="matrix(0.07407407407407408,0,0,0.07407407407407408,0,0)" xlink:href="#al"/><use transform="matrix(0.07407407407407408,0,0,0.07407407407407408,19.185185185185187,0)" xlink:href="#am"/><use transform="matrix(0.07407407407407408,0,0,0.07407407407407408,35.40740740740741,0)" xlink:href="#am"/><use transform="matrix(0.07407407407407408,0,0,0.07407407407407408,51.62962962962963,0)" xlink:href="#an"/><use transform="matrix(0.07407407407407408,0,0,0.07407407407407408,59.03703703703704,0)" xlink:href="#ao"/><use transform="matrix(0.07407407407407408,0,0,0.07407407407407408,66.44444444444444,0)" xlink:href="#ap"/><use transform="matrix(0.07407407407407408,0,0,0.07407407407407408,81.25925925925927,0)" xlink:href="#aq"/><use transform="matrix(0.07407407407407408,0,0,0.07407407407407408,96.07407407407408,0)" xlink:href="#ar"/><use transform="matrix(0.07407407407407408,0,0,0.07407407407407408,104.88888888888889,0)" xlink:href="#ao"/><use transform="matrix(0.07407407407407408,0,0,0.07407407407407408,112.29629629629629,0)" xlink:href="#ai"/><use transform="matrix(0.07407407407407408,0,0,0.07407407407407408,128.5185185185185,0)" xlink:href="#as"/></g><path fill="#333" d="M24-248c93 1 206-16 204 79-1 75-69 88-152 82V0H24v-248zm52 121c47 0 100 7 100-41 0-47-54-39-100-39v80" id="ay"/><path fill="#333" d="M24 0v-248h52V0H24" id="az"/><g id="g"><use transform="matrix(0.07407407407407408,0,0,0.07407407407407408,0,0)" xlink:href="#al"/><use transform="matrix(0.07407407407407408,0,0,0.07407407407407408,19.185185185185187,0)" xlink:href="#ay"/><use transform="matrix(0.07407407407407408,0,0,0.07407407407407408,36.96296296296296,0)" xlink:href="#az"/></g><g id="h"><use transform="matrix(0.07407407407407408,0,0,0.07407407407407408,0,0)" xlink:href="#al"/><use transform="matrix(0.07407407407407408,0,0,0.07407407407407408,19.185185185185187,0)" xlink:href="#aj"/><use transform="matrix(0.07407407407407408,0,0,0.07407407407407408,35.40740740740741,0)" xlink:href="#ar"/><use transform="matrix(0.07407407407407408,0,0,0.07407407407407408,44.22222222222223,0)" xlink:href="#ax"/><use transform="matrix(0.07407407407407408,0,0,0.07407407407407408,60.444444444444464,0)" xlink:href="#av"/><use transform="matrix(0.07407407407407408,0,0,0.07407407407407408,75.25925925925927,0)" xlink:href="#as"/><use transform="matrix(0.07407407407407408,0,0,0.07407407407407408,91.4814814814815,0)" xlink:href="#ar"/><use transform="matrix(0.07407407407407408,0,0,0.07407407407407408,100.2962962962963,0)" xlink:href="#ao"/><use transform="matrix(0.07407407407407408,0,0,0.07407407407407408,107.70370370370372,0)" xlink:href="#ap"/><use transform="matrix(0.07407407407407408,0,0,0.07407407407407408,122.51851851851853,0)" xlink:href="#aq"/><use transform="matrix(0.07407407407407408,0,0,0.07407407407407408,137.33333333333334,0)" xlink:href="#ar"/><use transform="matrix(0.07407407407407408,0,0,0.07407407407407408,146.14814814814815,0)" xlink:href="#ao"/><use transform="matrix(0.07407407407407408,0,0,0.07407407407407408,153.55555555555557,0)" xlink:href="#ai"/><use transform="matrix(0.07407407407407408,0,0,0.07407407407407408,169.7777777777778,0)" xlink:href="#as"/></g><g id="i"><use transform="matrix(0.07407407407407408,0,0,0.07407407407407408,0,0)" xlink:href="#al"/><use transform="matrix(0.07407407407407408,0,0,0.07407407407407408,19.185185185185187,0)" xlink:href="#ay"/><use transform="matrix(0.07407407407407408,0,0,0.07407407407407408,36.96296296296296,0)" xlink:href="#az"/></g><path fill="#333" d="M212-179c-10-28-35-45-73-45-59 0-87 40-87 99 0 60 29 101 89 101 43 0 62-24 78-52l27 14C228-24 195 4 139 4 59 4 22-46 18-125c-6-104 99-153 187-111 19 9 31 26 39 46" id="aA"/><path fill="#333" d="M84 4C-5 8 30-112 23-190h32v120c0 31 7 50 39 49 72-2 45-101 50-169h31l1 190h-30c-1-10 1-25-2-33-11 22-28 36-60 37" id="aB"/><path fill="#333" d="M135-143c-3-34-86-38-87 0 15 53 115 12 119 90S17 21 10-45l28-5c4 36 97 45 98 0-10-56-113-15-118-90-4-57 82-63 122-42 12 7 21 19 24 35" id="aC"/><path fill="#333" d="M59-47c-2 24 18 29 38 22v24C64 9 27 4 27-40v-127H5v-23h24l9-43h21v43h35v23H59v120" id="aD"/><path fill="#333" d="M100-194c62-1 85 37 85 99 1 63-27 99-86 99S16-35 15-95c0-66 28-99 85-99zM99-20c44 1 53-31 53-75 0-43-8-75-51-75s-53 32-53 75 10 74 51 75" id="aE"/><path fill="#333" d="M210-169c-67 3-38 105-44 169h-31v-121c0-29-5-50-35-48C34-165 62-65 56 0H25l-1-190h30c1 10-1 24 2 32 10-44 99-50 107 0 11-21 27-35 58-36 85-2 47 119 55 194h-31v-121c0-29-5-49-35-48" id="aF"/><path fill="#333" d="M100-194c63 0 86 42 84 106H49c0 40 14 67 53 68 26 1 43-12 49-29l28 8c-11 28-37 45-77 45C44 4 14-33 15-96c1-61 26-98 85-98zm52 81c6-60-76-77-97-28-3 7-6 17-6 28h103" id="aG"/><path fill="#333" d="M114-163C36-179 61-72 57 0H25l-1-190h30c1 12-1 29 2 39 6-27 23-49 58-41v29" id="aH"/><g id="j"><use transform="matrix(0.06172839506172778,0,0,0.06172839506172778,0,0)" xlink:href="#aA"/><use transform="matrix(0.06172839506172778,0,0,0.06172839506172778,15.987654320987495,0)" xlink:href="#aB"/><use transform="matrix(0.06172839506172778,0,0,0.06172839506172778,28.33333333333305,0)" xlink:href="#aC"/><use transform="matrix(0.06172839506172778,0,0,0.06172839506172778,39.44444444444405,0)" xlink:href="#aD"/><use transform="matrix(0.06172839506172778,0,0,0.06172839506172778,45.61728395061683,0)" xlink:href="#aE"/><use transform="matrix(0.06172839506172778,0,0,0.06172839506172778,57.962962962962386,0)" xlink:href="#aF"/><use transform="matrix(0.06172839506172778,0,0,0.06172839506172778,76.41975308641899,0)" xlink:href="#aG"/><use transform="matrix(0.06172839506172778,0,0,0.06172839506172778,88.76543209876455,0)" xlink:href="#aH"/></g><path fill="#333" d="M24-231v-30h32v30H24zM24 0v-190h32V0H24" id="aI"/><path fill="#333" d="M177-190C167-65 218 103 67 71c-23-6-38-20-44-43l32-5c15 47 100 32 89-28v-30C133-14 115 1 83 1 29 1 15-40 15-95c0-56 16-97 71-98 29-1 48 16 59 35 1-10 0-23 2-32h30zM94-22c36 0 50-32 50-73 0-42-14-75-50-75-39 0-46 34-46 75s6 73 46 73" id="aJ"/><path fill="#333" d="M117-194c89-4 53 116 60 194h-32v-121c0-31-8-49-39-48C34-167 62-67 57 0H25l-1-190h30c1 10-1 24 2 32 11-22 29-35 61-36" id="aK"/><g id="k"><use transform="matrix(0.06172839506172778,0,0,0.06172839506172778,0,0)" xlink:href="#aC"/><use transform="matrix(0.06172839506172778,0,0,0.06172839506172778,11.111111111111,0)" xlink:href="#aI"/><use transform="matrix(0.06172839506172778,0,0,0.06172839506172778,15.987654320987495,0)" xlink:href="#aJ"/><use transform="matrix(0.06172839506172778,0,0,0.06172839506172778,28.33333333333305,0)" xlink:href="#aK"/><use transform="matrix(0.06172839506172778,0,0,0.06172839506172778,40.67901234567861,0)" xlink:href="#aC"/></g><path fill="#333" d="M115-194c55 1 70 41 70 98S169 2 115 4C84 4 66-9 55-30l1 105H24l-1-265h31l2 30c10-21 28-34 59-34zm-8 174c40 0 45-34 45-75s-6-73-45-74c-42 0-51 32-51 76 0 43 10 73 51 73" id="aL"/><g id="l"><use transform="matrix(0.06172839506172778,0,0,0.06172839506172778,0,0)" xlink:href="#aB"/><use transform="matrix(0.06172839506172778,0,0,0.06172839506172778,12.345679012345556,0)" xlink:href="#aL"/></g><path fill="#333" d="M101-234c-31-9-42 10-38 44h38v23H63V0H32v-167H5v-23h27c-7-52 17-82 69-68v24" id="aM"/><g id="m"><use transform="matrix(0.06172839506172778,0,0,0.06172839506172778,0,0)" xlink:href="#aM"/><use transform="matrix(0.06172839506172778,0,0,0.06172839506172778,6.172839506172778,0)" xlink:href="#aE"/><use transform="matrix(0.06172839506172778,0,0,0.06172839506172778,18.518518518518334,0)" xlink:href="#aH"/></g><path fill="#333" d="M205 0l-28-72H64L36 0H1l101-248h38L239 0h-34zm-38-99l-47-123c-12 45-31 82-46 123h93" id="aN"/><path fill="#333" d="M30-248c87 1 191-15 191 75 0 78-77 80-158 76V0H30v-248zm33 125c57 0 124 11 124-50 0-59-68-47-124-48v98" id="aO"/><path fill="#333" d="M141-36C126-15 110 5 73 4 37 3 15-17 15-53c-1-64 63-63 125-63 3-35-9-54-41-54-24 1-41 7-42 31l-33-3c5-37 33-52 76-52 45 0 72 20 72 64v82c-1 20 7 32 28 27v20c-31 9-61-2-59-35zM48-53c0 20 12 33 32 33 41-3 63-29 60-74-43 2-92-5-92 41" id="aP"/><path fill="#333" d="M179-190L93 31C79 59 56 82 12 73V49c39 6 53-20 64-50L1-190h34L92-34l54-156h33" id="aQ"/><g id="n"><use transform="matrix(0.06172839506172778,0,0,0.06172839506172778,0,0)" xlink:href="#aN"/><use transform="matrix(0.06172839506172778,0,0,0.06172839506172778,14.814814814814667,0)" xlink:href="#aM"/><use transform="matrix(0.06172839506172778,0,0,0.06172839506172778,20.55555555555535,0)" xlink:href="#aM"/><use transform="matrix(0.06172839506172778,0,0,0.06172839506172778,26.72839506172813,0)" xlink:href="#aI"/><use transform="matrix(0.06172839506172778,0,0,0.06172839506172778,31.604938271604624,0)" xlink:href="#aK"/><use transform="matrix(0.06172839506172778,0,0,0.06172839506172778,43.95061728395018,0)" xlink:href="#aI"/><use transform="matrix(0.06172839506172778,0,0,0.06172839506172778,48.827160493826675,0)" xlink:href="#aO"/><use transform="matrix(0.06172839506172778,0,0,0.06172839506172778,63.64197530864134,0)" xlink:href="#aP"/><use transform="matrix(0.06172839506172778,0,0,0.06172839506172778,75.9876543209869,0)" xlink:href="#aQ"/></g><g id="o"><use transform="matrix(0.06172839506172778,0,0,0.06172839506172778,0,0)" xlink:href="#aL"/><use transform="matrix(0.06172839506172778,0,0,0.06172839506172778,12.345679012345556,0)" xlink:href="#aP"/><use transform="matrix(0.06172839506172778,0,0,0.06172839506172778,24.691358024691112,0)" xlink:href="#aQ"/><use transform="matrix(0.06172839506172778,0,0,0.06172839506172778,35.80246913580211,0)" xlink:href="#aF"/><use transform="matrix(0.06172839506172778,0,0,0.06172839506172778,54.25925925925872,0)" xlink:href="#aG"/><use transform="matrix(0.06172839506172778,0,0,0.06172839506172778,66.60493827160428,0)" xlink:href="#aK"/><use transform="matrix(0.06172839506172778,0,0,0.06172839506172778,78.95061728394984,0)" xlink:href="#aD"/></g><path fill="#333" d="M24 0v-261h32V0H24" id="aR"/><g id="p"><use transform="matrix(0.06172839506172778,0,0,0.06172839506172778,0,0)" xlink:href="#aC"/><use transform="matrix(0.06172839506172778,0,0,0.06172839506172778,11.111111111111,0)" xlink:href="#aE"/><use transform="matrix(0.06172839506172778,0,0,0.06172839506172778,23.456790123456557,0)" xlink:href="#aR"/><use transform="matrix(0.06172839506172778,0,0,0.06172839506172778,28.33333333333305,0)" xlink:href="#aB"/><use transform="matrix(0.06172839506172778,0,0,0.06172839506172778,40.67901234567861,0)" xlink:href="#aD"/><use transform="matrix(0.06172839506172778,0,0,0.06172839506172778,46.851851851851386,0)" xlink:href="#aI"/><use transform="matrix(0.06172839506172778,0,0,0.06172839506172778,51.72839506172788,0)" xlink:href="#aE"/><use transform="matrix(0.06172839506172778,0,0,0.06172839506172778,64.07407407407344,0)" xlink:href="#aK"/></g><path fill="#333" d="M106-169C34-169 62-67 57 0H25v-261h32l-1 103c12-21 28-36 61-36 89 0 53 116 60 194h-32v-121c2-32-8-49-39-48" id="aS"/><g id="q"><use transform="matrix(0.06172839506172778,0,0,0.06172839506172778,0,0)" xlink:href="#aD"/><use transform="matrix(0.06172839506172778,0,0,0.06172839506172778,6.172839506172778,0)" xlink:href="#aS"/><use transform="matrix(0.06172839506172778,0,0,0.06172839506172778,18.518518518518334,0)" xlink:href="#aH"/><use transform="matrix(0.06172839506172778,0,0,0.06172839506172778,25.86419753086394,0)" xlink:href="#aE"/><use transform="matrix(0.06172839506172778,0,0,0.06172839506172778,38.209876543209496,0)" xlink:href="#aB"/><use transform="matrix(0.06172839506172778,0,0,0.06172839506172778,50.55555555555505,0)" xlink:href="#aJ"/><use transform="matrix(0.06172839506172778,0,0,0.06172839506172778,62.90123456790061,0)" xlink:href="#aS"/></g><g id="r"><use transform="matrix(0.06172839506172778,0,0,0.06172839506172778,0,0)" xlink:href="#aQ"/><use transform="matrix(0.06172839506172778,0,0,0.06172839506172778,11.111111111111,0)" xlink:href="#aE"/><use transform="matrix(0.06172839506172778,0,0,0.06172839506172778,23.456790123456557,0)" xlink:href="#aB"/><use transform="matrix(0.06172839506172778,0,0,0.06172839506172778,35.80246913580211,0)" xlink:href="#aH"/></g><path fill="#333" d="M96-169c-40 0-48 33-48 73s9 75 48 75c24 0 41-14 43-38l32 2c-6 37-31 61-74 61-59 0-76-41-82-99-10-93 101-131 147-64 4 7 5 14 7 22l-32 3c-4-21-16-35-41-35" id="aT"/><g id="s"><use transform="matrix(0.06172839506172778,0,0,0.06172839506172778,0,0)" xlink:href="#aP"/><use transform="matrix(0.06172839506172778,0,0,0.06172839506172778,12.345679012345556,0)" xlink:href="#aL"/><use transform="matrix(0.06172839506172778,0,0,0.06172839506172778,24.691358024691112,0)" xlink:href="#aL"/><use transform="matrix(0.06172839506172778,0,0,0.06172839506172778,37.03703703703667,0)" xlink:href="#aR"/><use transform="matrix(0.06172839506172778,0,0,0.06172839506172778,41.91358024691316,0)" xlink:href="#aI"/><use transform="matrix(0.06172839506172778,0,0,0.06172839506172778,46.79012345678966,0)" xlink:href="#aT"/><use transform="matrix(0.06172839506172778,0,0,0.06172839506172778,57.90123456790066,0)" xlink:href="#aP"/><use transform="matrix(0.06172839506172778,0,0,0.06172839506172778,70.24691358024621,0)" xlink:href="#aD"/><use transform="matrix(0.06172839506172778,0,0,0.06172839506172778,76.41975308641899,0)" xlink:href="#aI"/><use transform="matrix(0.06172839506172778,0,0,0.06172839506172778,81.29629629629548,0)" xlink:href="#aE"/><use transform="matrix(0.06172839506172778,0,0,0.06172839506172778,93.64197530864104,0)" xlink:href="#aK"/></g><path fill="#333" d="M23 0v-37h61v-169l-59 37v-38l62-41h46v211h57V0H23" id="aU"/><use transform="matrix(0.12345679012345678,0,0,0.12345679012345678,0,0)" xlink:href="#aU" id="t"/><g id="u"><use transform="matrix(0.06172839506172778,0,0,0.06172839506172778,0,0)" xlink:href="#aN"/><use transform="matrix(0.06172839506172778,0,0,0.06172839506172778,14.814814814814667,0)" xlink:href="#aL"/><use transform="matrix(0.06172839506172778,0,0,0.06172839506172778,27.160493827160224,0)" xlink:href="#aL"/><use transform="matrix(0.06172839506172778,0,0,0.06172839506172778,39.50617283950578,0)" xlink:href="#aR"/><use transform="matrix(0.06172839506172778,0,0,0.06172839506172778,44.382716049382275,0)" xlink:href="#aI"/><use transform="matrix(0.06172839506172778,0,0,0.06172839506172778,49.25925925925877,0)" xlink:href="#aT"/><use transform="matrix(0.06172839506172778,0,0,0.06172839506172778,60.37037037036977,0)" xlink:href="#aP"/><use transform="matrix(0.06172839506172778,0,0,0.06172839506172778,72.71604938271533,0)" xlink:href="#aD"/><use transform="matrix(0.06172839506172778,0,0,0.06172839506172778,78.8888888888881,0)" xlink:href="#aI"/><use transform="matrix(0.06172839506172778,0,0,0.06172839506172778,83.76543209876459,0)" xlink:href="#aE"/><use transform="matrix(0.06172839506172778,0,0,0.06172839506172778,96.11111111111015,0)" xlink:href="#aK"/></g><path fill="#333" d="M108 0H70L1-190h34L89-25l56-165h34" id="aV"/><path fill="#333" d="M85-194c31 0 48 13 60 33l-1-100h32l1 261h-30c-2-10 0-23-3-31C134-8 116 4 85 4 32 4 16-35 15-94c0-66 23-100 70-100zm9 24c-40 0-46 34-46 75 0 40 6 74 45 74 42 0 51-32 51-76 0-42-9-74-50-73" id="aW"/><path fill="#333" d="M68-38c1 34 0 65-14 84H32c9-13 17-26 17-46H33v-38h35" id="aX"/><g id="v"><use transform="matrix(0.06172839506172778,0,0,0.06172839506172778,0,0)" xlink:href="#aP"/><use transform="matrix(0.06172839506172778,0,0,0.06172839506172778,12.345679012345556,0)" xlink:href="#aL"/><use transform="matrix(0.06172839506172778,0,0,0.06172839506172778,24.691358024691112,0)" xlink:href="#aL"/><use transform="matrix(0.06172839506172778,0,0,0.06172839506172778,37.03703703703667,0)" xlink:href="#aH"/><use transform="matrix(0.06172839506172778,0,0,0.06172839506172778,44.382716049382275,0)" xlink:href="#aE"/><use transform="matrix(0.06172839506172778,0,0,0.06172839506172778,56.72839506172783,0)" xlink:href="#aV"/><use transform="matrix(0.06172839506172778,0,0,0.06172839506172778,67.83950617283884,0)" xlink:href="#aG"/><use transform="matrix(0.06172839506172778,0,0,0.06172839506172778,80.1851851851844,0)" xlink:href="#aW"/><use transform="matrix(0.06172839506172778,0,0,0.06172839506172778,92.53086419752995,0)" xlink:href="#aX"/></g><g id="w"><use transform="matrix(0.06172839506172778,0,0,0.06172839506172778,0,0)" xlink:href="#aP"/><use transform="matrix(0.06172839506172778,0,0,0.06172839506172778,12.345679012345556,0)" xlink:href="#aT"/><use transform="matrix(0.06172839506172778,0,0,0.06172839506172778,23.456790123456557,0)" xlink:href="#aT"/><use transform="matrix(0.06172839506172778,0,0,0.06172839506172778,34.56790123456756,0)" xlink:href="#aE"/><use transform="matrix(0.06172839506172778,0,0,0.06172839506172778,46.913580246913114,0)" xlink:href="#aB"/><use transform="matrix(0.06172839506172778,0,0,0.06172839506172778,59.25925925925867,0)" xlink:href="#aK"/><use transform="matrix(0.06172839506172778,0,0,0.06172839506172778,71.60493827160423,0)" xlink:href="#aD"/></g><g id="x"><use transform="matrix(0.06172839506172778,0,0,0.06172839506172778,0,0)" xlink:href="#aL"/><use transform="matrix(0.06172839506172778,0,0,0.06172839506172778,12.345679012345556,0)" xlink:href="#aH"/><use transform="matrix(0.06172839506172778,0,0,0.06172839506172778,19.691358024691162,0)" xlink:href="#aE"/><use transform="matrix(0.06172839506172778,0,0,0.06172839506172778,32.03703703703672,0)" xlink:href="#aV"/><use transform="matrix(0.06172839506172778,0,0,0.06172839506172778,43.14814814814772,0)" xlink:href="#aI"/><use transform="matrix(0.06172839506172778,0,0,0.06172839506172778,48.024691358024214,0)" xlink:href="#aC"/><use transform="matrix(0.06172839506172778,0,0,0.06172839506172778,59.135802469135214,0)" xlink:href="#aI"/><use transform="matrix(0.06172839506172778,0,0,0.06172839506172778,64.0123456790117,0)" xlink:href="#aE"/><use transform="matrix(0.06172839506172778,0,0,0.06172839506172778,76.35802469135726,0)" xlink:href="#aK"/><use transform="matrix(0.06172839506172778,0,0,0.06172839506172778,88.70370370370281,0)" xlink:href="#aG"/><use transform="matrix(0.06172839506172778,0,0,0.06172839506172778,101.04938271604837,0)" xlink:href="#aW"/><use transform="matrix(0.06172839506172778,0,0,0.06172839506172778,113.39506172839393,0)" xlink:href="#aX"/></g><g id="y"><use transform="matrix(0.06172839506172778,0,0,0.06172839506172778,0,0)" xlink:href="#aP"/><use transform="matrix(0.06172839506172778,0,0,0.06172839506172778,12.345679012345556,0)" xlink:href="#aK"/><use transform="matrix(0.06172839506172778,0,0,0.06172839506172778,24.691358024691112,0)" xlink:href="#aW"/></g><path fill="#333" d="M-5 72V49h209v23H-5" id="aY"/><g id="z"><use transform="matrix(0.06172839506172778,0,0,0.06172839506172778,0,0)" xlink:href="#aP"/><use transform="matrix(0.06172839506172778,0,0,0.06172839506172778,12.345679012345556,0)" xlink:href="#aB"/><use transform="matrix(0.06172839506172778,0,0,0.06172839506172778,24.691358024691112,0)" xlink:href="#aD"/><use transform="matrix(0.06172839506172778,0,0,0.06172839506172778,30.86419753086389,0)" xlink:href="#aS"/><use transform="matrix(0.06172839506172778,0,0,0.06172839506172778,43.20987654320945,0)" xlink:href="#aY"/><use transform="matrix(0.06172839506172778,0,0,0.06172839506172778,55.555555555555,0)" xlink:href="#aT"/><use transform="matrix(0.06172839506172778,0,0,0.06172839506172778,66.666666666666,0)" xlink:href="#aE"/><use transform="matrix(0.06172839506172778,0,0,0.06172839506172778,79.01234567901156,0)" xlink:href="#aW"/><use transform="matrix(0.06172839506172778,0,0,0.06172839506172778,91.35802469135712,0)" xlink:href="#aG"/></g><g id="A"><use transform="matrix(0.06172839506172778,0,0,0.06172839506172778,0,0)" xlink:href="#aC"/><use transform="matrix(0.06172839506172778,0,0,0.06172839506172778,11.111111111111,0)" xlink:href="#aG"/><use transform="matrix(0.06172839506172778,0,0,0.06172839506172778,23.456790123456557,0)" xlink:href="#aK"/><use transform="matrix(0.06172839506172778,0,0,0.06172839506172778,35.80246913580211,0)" xlink:href="#aD"/></g><g id="B"><use transform="matrix(0.06172839506172778,0,0,0.06172839506172778,0,0)" xlink:href="#aD"/><use transform="matrix(0.06172839506172778,0,0,0.06172839506172778,6.172839506172778,0)" xlink:href="#aE"/></g><path fill="#333" d="M206 0h-36l-40-164L89 0H53L-1-190h32L70-26l43-164h34l41 164 42-164h31" id="aZ"/><path fill="#333" d="M115-194c53 0 69 39 70 98 0 66-23 100-70 100C84 3 66-7 56-30L54 0H23l1-261h32v101c10-23 28-34 59-34zm-8 174c40 0 45-34 45-75 0-40-5-75-45-74-42 0-51 32-51 76 0 43 10 73 51 73" id="ba"/><path fill="#333" d="M143 0L79-87 56-68V0H24v-261h32v163l83-92h37l-77 82L181 0h-38" id="bb"/><g id="C"><use transform="matrix(0.06172839506172778,0,0,0.06172839506172778,0,0)" xlink:href="#aZ"/><use transform="matrix(0.06172839506172778,0,0,0.06172839506172778,15.987654320987495,0)" xlink:href="#aG"/><use transform="matrix(0.06172839506172778,0,0,0.06172839506172778,28.33333333333305,0)" xlink:href="#ba"/><use transform="matrix(0.06172839506172778,0,0,0.06172839506172778,40.67901234567861,0)" xlink:href="#aS"/><use transform="matrix(0.06172839506172778,0,0,0.06172839506172778,53.024691358024164,0)" xlink:href="#aE"/><use transform="matrix(0.06172839506172778,0,0,0.06172839506172778,65.37037037036973,0)" xlink:href="#aE"/><use transform="matrix(0.06172839506172778,0,0,0.06172839506172778,77.71604938271528,0)" xlink:href="#bb"/></g><path fill="#333" d="M128-127c34 4 56 21 59 58 7 91-148 94-172 28-4-9-6-17-7-26l51-5c1 24 16 35 40 36 23 0 39-12 38-36-1-31-31-36-65-34v-40c32 2 59-3 59-33 0-20-13-33-34-33s-33 13-35 32l-50-3c6-44 37-68 86-68 50 0 83 20 83 66 0 35-22 52-53 58" id="bc"/><use transform="matrix(0.12345679012345678,0,0,0.12345679012345678,0,0)" xlink:href="#bc" id="D"/><path fill="#333" d="M190 0L58-211 59 0H30v-248h39L202-35l-2-213h31V0h-41" id="bd"/><g id="E"><use transform="matrix(0.06172839506172778,0,0,0.06172839506172778,0,0)" xlink:href="#bd"/><use transform="matrix(0.06172839506172778,0,0,0.06172839506172778,15.987654320987495,0)" xlink:href="#aE"/><use transform="matrix(0.06172839506172778,0,0,0.06172839506172778,28.33333333333305,0)" xlink:href="#aD"/><use transform="matrix(0.06172839506172778,0,0,0.06172839506172778,34.50617283950583,0)" xlink:href="#aI"/><use transform="matrix(0.06172839506172778,0,0,0.06172839506172778,39.382716049382324,0)" xlink:href="#aM"/><use transform="matrix(0.06172839506172778,0,0,0.06172839506172778,45.5555555555551,0)" xlink:href="#aQ"/></g><g id="F"><use transform="matrix(0.06172839506172778,0,0,0.06172839506172778,0,0)" xlink:href="#aB"/><use transform="matrix(0.06172839506172778,0,0,0.06172839506172778,12.345679012345556,0)" xlink:href="#aC"/><use transform="matrix(0.06172839506172778,0,0,0.06172839506172778,23.456790123456557,0)" xlink:href="#aG"/><use transform="matrix(0.06172839506172778,0,0,0.06172839506172778,35.80246913580211,0)" xlink:href="#aH"/></g><g id="G"><use transform="matrix(0.06172839506172778,0,0,0.06172839506172778,0,0)" xlink:href="#aV"/><use transform="matrix(0.06172839506172778,0,0,0.06172839506172778,11.111111111111,0)" xlink:href="#aI"/><use transform="matrix(0.06172839506172778,0,0,0.06172839506172778,15.987654320987495,0)" xlink:href="#aP"/></g><g id="H"><use transform="matrix(0.06172839506172778,0,0,0.06172839506172778,0,0)" xlink:href="#aG"/><use transform="matrix(0.06172839506172778,0,0,0.06172839506172778,12.345679012345556,0)" xlink:href="#aF"/><use transform="matrix(0.06172839506172778,0,0,0.06172839506172778,30.802469135802163,0)" xlink:href="#aP"/><use transform="matrix(0.06172839506172778,0,0,0.06172839506172778,43.14814814814772,0)" xlink:href="#aI"/><use transform="matrix(0.06172839506172778,0,0,0.06172839506172778,48.024691358024214,0)" xlink:href="#aR"/></g><g id="I"><use transform="matrix(0.06172839506172778,0,0,0.06172839506172778,0,0)" xlink:href="#aD"/><use transform="matrix(0.06172839506172778,0,0,0.06172839506172778,6.172839506172778,0)" xlink:href="#aS"/><use transform="matrix(0.06172839506172778,0,0,0.06172839506172778,18.518518518518334,0)" xlink:href="#aP"/><use transform="matrix(0.06172839506172778,0,0,0.06172839506172778,30.86419753086389,0)" xlink:href="#aD"/></g><g id="J"><use transform="matrix(0.06172839506172778,0,0,0.06172839506172778,0,0)" xlink:href="#aL"/><use transform="matrix(0.06172839506172778,0,0,0.06172839506172778,12.345679012345556,0)" xlink:href="#aP"/><use transform="matrix(0.06172839506172778,0,0,0.06172839506172778,24.691358024691112,0)" xlink:href="#aQ"/><use transform="matrix(0.06172839506172778,0,0,0.06172839506172778,35.80246913580211,0)" xlink:href="#aF"/><use transform="matrix(0.06172839506172778,0,0,0.06172839506172778,54.25925925925872,0)" xlink:href="#aG"/><use transform="matrix(0.06172839506172778,0,0,0.06172839506172778,66.60493827160428,0)" xlink:href="#aK"/><use transform="matrix(0.06172839506172778,0,0,0.06172839506172778,78.95061728394984,0)" xlink:href="#aD"/><use transform="matrix(0.06172839506172778,0,0,0.06172839506172778,85.12345679012262,0)" xlink:href="#aC"/></g><g id="K"><use transform="matrix(0.06172839506172778,0,0,0.06172839506172778,0,0)" xlink:href="#aS"/><use transform="matrix(0.06172839506172778,0,0,0.06172839506172778,12.345679012345556,0)" xlink:href="#aP"/><use transform="matrix(0.06172839506172778,0,0,0.06172839506172778,24.691358024691112,0)" xlink:href="#aV"/><use transform="matrix(0.06172839506172778,0,0,0.06172839506172778,35.80246913580211,0)" xlink:href="#aG"/></g><g id="L"><use transform="matrix(0.06172839506172778,0,0,0.06172839506172778,0,0)" xlink:href="#ba"/><use transform="matrix(0.06172839506172778,0,0,0.06172839506172778,12.345679012345556,0)" xlink:href="#aG"/><use transform="matrix(0.06172839506172778,0,0,0.06172839506172778,24.691358024691112,0)" xlink:href="#aG"/><use transform="matrix(0.06172839506172778,0,0,0.06172839506172778,37.03703703703667,0)" xlink:href="#aK"/></g><g id="M"><use transform="matrix(0.06172839506172778,0,0,0.06172839506172778,0,0)" xlink:href="#aP"/><use transform="matrix(0.06172839506172778,0,0,0.06172839506172778,12.345679012345556,0)" xlink:href="#aT"/><use transform="matrix(0.06172839506172778,0,0,0.06172839506172778,23.456790123456557,0)" xlink:href="#aD"/><use transform="matrix(0.06172839506172778,0,0,0.06172839506172778,29.629629629629335,0)" xlink:href="#aI"/><use transform="matrix(0.06172839506172778,0,0,0.06172839506172778,34.50617283950583,0)" xlink:href="#aV"/><use transform="matrix(0.06172839506172778,0,0,0.06172839506172778,45.61728395061683,0)" xlink:href="#aP"/><use transform="matrix(0.06172839506172778,0,0,0.06172839506172778,57.962962962962386,0)" xlink:href="#aD"/><use transform="matrix(0.06172839506172778,0,0,0.06172839506172778,64.13580246913517,0)" xlink:href="#aG"/><use transform="matrix(0.06172839506172778,0,0,0.06172839506172778,76.48148148148073,0)" xlink:href="#aW"/></g><g id="N"><use transform="matrix(0.06172839506172778,0,0,0.06172839506172778,0,0)" xlink:href="#aM"/><use transform="matrix(0.06172839506172778,0,0,0.06172839506172778,6.172839506172778,0)" xlink:href="#aE"/><use transform="matrix(0.06172839506172778,0,0,0.06172839506172778,18.518518518518334,0)" xlink:href="#aH"/></g><g id="O"><use transform="matrix(0.06172839506172778,0,0,0.06172839506172778,0,0)" xlink:href="#aD"/><use transform="matrix(0.06172839506172778,0,0,0.06172839506172778,6.172839506172778,0)" xlink:href="#aS"/><use transform="matrix(0.06172839506172778,0,0,0.06172839506172778,18.518518518518334,0)" xlink:href="#aG"/><use transform="matrix(0.06172839506172778,0,0,0.06172839506172778,30.86419753086389,0)" xlink:href="#aI"/><use transform="matrix(0.06172839506172778,0,0,0.06172839506172778,35.740740740740385,0)" xlink:href="#aH"/></g><g id="P"><use transform="matrix(0.06172839506172778,0,0,0.06172839506172778,0,0)" xlink:href="#aP"/><use transform="matrix(0.06172839506172778,0,0,0.06172839506172778,12.345679012345556,0)" xlink:href="#aT"/><use transform="matrix(0.06172839506172778,0,0,0.06172839506172778,23.456790123456557,0)" xlink:href="#aT"/><use transform="matrix(0.06172839506172778,0,0,0.06172839506172778,34.56790123456756,0)" xlink:href="#aE"/><use transform="matrix(0.06172839506172778,0,0,0.06172839506172778,46.913580246913114,0)" xlink:href="#aB"/><use transform="matrix(0.06172839506172778,0,0,0.06172839506172778,59.25925925925867,0)" xlink:href="#aK"/><use transform="matrix(0.06172839506172778,0,0,0.06172839506172778,71.60493827160423,0)" xlink:href="#aD"/></g><path fill="#333" d="M115-159c48 0 72 30 72 78 0 54-30 85-83 85-64 0-91-50-91-122 0-98 58-163 141-120 15 8 21 24 27 44l-47 6c-5-31-48-31-61-4-7 14-11 33-11 60 9-17 28-27 53-27zM102-35c24 0 36-20 36-45s-11-43-37-43c-23 0-36 14-36 38 0 27 11 50 37 50" id="be"/><use transform="matrix(0.12345679012345678,0,0,0.12345679012345678,0,0)" xlink:href="#be" id="Q"/><g id="R"><use transform="matrix(0.06172839506172778,0,0,0.06172839506172778,0,0)" xlink:href="#aN"/><use transform="matrix(0.06172839506172778,0,0,0.06172839506172778,14.814814814814667,0)" xlink:href="#aT"/><use transform="matrix(0.06172839506172778,0,0,0.06172839506172778,25.925925925925668,0)" xlink:href="#aT"/><use transform="matrix(0.06172839506172778,0,0,0.06172839506172778,37.03703703703667,0)" xlink:href="#aG"/><use transform="matrix(0.06172839506172778,0,0,0.06172839506172778,49.382716049382225,0)" xlink:href="#aC"/><use transform="matrix(0.06172839506172778,0,0,0.06172839506172778,60.493827160493225,0)" xlink:href="#aC"/></g><g id="S"><use transform="matrix(0.06172839506172778,0,0,0.06172839506172778,0,0)" xlink:href="#aD"/><use transform="matrix(0.06172839506172778,0,0,0.06172839506172778,6.172839506172778,0)" xlink:href="#aE"/><use transform="matrix(0.06172839506172778,0,0,0.06172839506172778,18.518518518518334,0)" xlink:href="#bb"/><use transform="matrix(0.06172839506172778,0,0,0.06172839506172778,29.629629629629335,0)" xlink:href="#aG"/><use transform="matrix(0.06172839506172778,0,0,0.06172839506172778,41.97530864197489,0)" xlink:href="#aK"/></g><path fill="#333" d="M139-81c0-46-55-55-73-27H18l9-140h149v37H72l-4 63c44-38 133-4 122 66C201 21 21 35 11-62l49-4c5 18 15 30 39 30 26 0 40-18 40-45" id="bf"/><use transform="matrix(0.12345679012345678,0,0,0.12345679012345678,0,0)" xlink:href="#bf" id="T"/><path fill="#333" d="M140-251c81 0 123 46 123 126C263-46 219 4 140 4 59 4 17-45 17-125s42-126 123-126zm0 227c63 0 89-41 89-101s-29-99-89-99c-61 0-89 39-89 99S79-25 140-24" id="bg"/><path fill="#333" d="M185-189c-5-48-123-54-124 2 14 75 158 14 163 119 3 78-121 87-175 55-17-10-28-26-33-46l33-7c5 56 141 63 141-1 0-78-155-14-162-118-5-82 145-84 179-34 5 7 8 16 11 25" id="bh"/><path fill="#333" d="M127-220V0H93v-220H8v-28h204v28h-85" id="bi"/><g id="U"><use transform="matrix(0.06172839506172778,0,0,0.06172839506172778,0,0)" xlink:href="#aO"/><use transform="matrix(0.06172839506172778,0,0,0.06172839506172778,14.814814814814667,0)" xlink:href="#bg"/><use transform="matrix(0.06172839506172778,0,0,0.06172839506172778,32.098765432098446,0)" xlink:href="#bh"/><use transform="matrix(0.06172839506172778,0,0,0.06172839506172778,46.913580246913114,0)" xlink:href="#bi"/></g><path fill="#333" d="M145-31C134-9 116 4 85 4 32 4 16-35 15-94c0-59 17-99 70-100 32-1 48 14 60 33 0-11-1-24 2-32h30l-1 268h-32zM93-21c41 0 51-33 51-76s-8-73-50-73c-40 0-46 35-46 75s5 74 45 74" id="bj"/><g id="V"><use transform="matrix(0.06172839506172778,0,0,0.06172839506172778,0,0)" xlink:href="#aH"/><use transform="matrix(0.06172839506172778,0,0,0.06172839506172778,7.345679012345606,0)" xlink:href="#aG"/><use transform="matrix(0.06172839506172778,0,0,0.06172839506172778,19.691358024691162,0)" xlink:href="#bj"/><use transform="matrix(0.06172839506172778,0,0,0.06172839506172778,32.03703703703672,0)" xlink:href="#aB"/><use transform="matrix(0.06172839506172778,0,0,0.06172839506172778,44.382716049382275,0)" xlink:href="#aG"/><use transform="matrix(0.06172839506172778,0,0,0.06172839506172778,56.72839506172783,0)" xlink:href="#aC"/><use transform="matrix(0.06172839506172778,0,0,0.06172839506172778,67.83950617283884,0)" xlink:href="#aD"/></g><g id="W"><use transform="matrix(0.06172839506172778,0,0,0.06172839506172778,0,0)" xlink:href="#aZ"/><use transform="matrix(0.06172839506172778,0,0,0.06172839506172778,15.987654320987495,0)" xlink:href="#aI"/><use transform="matrix(0.06172839506172778,0,0,0.06172839506172778,20.86419753086399,0)" xlink:href="#aD"/><use transform="matrix(0.06172839506172778,0,0,0.06172839506172778,27.037037037036768,0)" xlink:href="#aS"/></g><g id="X"><use transform="matrix(0.06172839506172778,0,0,0.06172839506172778,0,0)" xlink:href="#aP"/><use transform="matrix(0.06172839506172778,0,0,0.06172839506172778,12.345679012345556,0)" xlink:href="#aB"/><use transform="matrix(0.06172839506172778,0,0,0.06172839506172778,24.691358024691112,0)" xlink:href="#aD"/><use transform="matrix(0.06172839506172778,0,0,0.06172839506172778,30.86419753086389,0)" xlink:href="#aS"/><use transform="matrix(0.06172839506172778,0,0,0.06172839506172778,43.20987654320945,0)" xlink:href="#aY"/><use transform="matrix(0.06172839506172778,0,0,0.06172839506172778,55.555555555555,0)" xlink:href="#aT"/><use transform="matrix(0.06172839506172778,0,0,0.06172839506172778,66.666666666666,0)" xlink:href="#aE"/><use transform="matrix(0.06172839506172778,0,0,0.06172839506172778,79.01234567901156,0)" xlink:href="#aW"/><use transform="matrix(0.06172839506172778,0,0,0.06172839506172778,91.35802469135712,0)" xlink:href="#aG"/></g><g id="Y"><use transform="matrix(0.06172839506172778,0,0,0.06172839506172778,0,0)" xlink:href="#aH"/><use transform="matrix(0.06172839506172778,0,0,0.06172839506172778,7.345679012345606,0)" xlink:href="#aG"/><use transform="matrix(0.06172839506172778,0,0,0.06172839506172778,19.691358024691162,0)" xlink:href="#aD"/><use transform="matrix(0.06172839506172778,0,0,0.06172839506172778,25.86419753086394,0)" xlink:href="#aH"/><use transform="matrix(0.06172839506172778,0,0,0.06172839506172778,33.209876543209546,0)" xlink:href="#aI"/><use transform="matrix(0.06172839506172778,0,0,0.06172839506172778,38.08641975308604,0)" xlink:href="#aG"/><use transform="matrix(0.06172839506172778,0,0,0.06172839506172778,50.4320987654316,0)" xlink:href="#aV"/><use transform="matrix(0.06172839506172778,0,0,0.06172839506172778,61.5432098765426,0)" xlink:href="#aG"/></g><g id="Z"><use transform="matrix(0.06172839506172778,0,0,0.06172839506172778,0,0)" xlink:href="#aP"/><use transform="matrix(0.06172839506172778,0,0,0.06172839506172778,12.345679012345556,0)" xlink:href="#aT"/><use transform="matrix(0.06172839506172778,0,0,0.06172839506172778,23.456790123456557,0)" xlink:href="#aT"/><use transform="matrix(0.06172839506172778,0,0,0.06172839506172778,34.56790123456756,0)" xlink:href="#aG"/><use transform="matrix(0.06172839506172778,0,0,0.06172839506172778,46.913580246913114,0)" xlink:href="#aC"/><use transform="matrix(0.06172839506172778,0,0,0.06172839506172778,58.024691358024114,0)" xlink:href="#aC"/><use transform="matrix(0.06172839506172778,0,0,0.06172839506172778,69.13580246913511,0)" xlink:href="#aY"/><use transform="matrix(0.06172839506172778,0,0,0.06172839506172778,81.48148148148067,0)" xlink:href="#aD"/><use transform="matrix(0.06172839506172778,0,0,0.06172839506172778,87.65432098765345,0)" xlink:href="#aE"/><use transform="matrix(0.06172839506172778,0,0,0.06172839506172778,99.999999999999,0)" xlink:href="#bb"/><use transform="matrix(0.06172839506172778,0,0,0.06172839506172778,111.11111111111,0)" xlink:href="#aG"/><use transform="matrix(0.06172839506172778,0,0,0.06172839506172778,123.45679012345556,0)" xlink:href="#aK"/></g><path fill="#333" d="M165-50V0h-47v-50H5v-38l105-160h55v161h33v37h-33zm-47-37l2-116L46-87h72" id="bk"/><use transform="matrix(0.12345679012345678,0,0,0.12345679012345678,0,0)" xlink:href="#bk" id="aa"/><g id="ab"><use transform="matrix(0.06172839506172778,0,0,0.06172839506172778,0,0)" xlink:href="#aO"/><use transform="matrix(0.06172839506172778,0,0,0.06172839506172778,14.814814814814667,0)" xlink:href="#bg"/><use transform="matrix(0.06172839506172778,0,0,0.06172839506172778,32.098765432098446,0)" xlink:href="#bh"/><use transform="matrix(0.06172839506172778,0,0,0.06172839506172778,46.913580246913114,0)" xlink:href="#bi"/></g><g id="ac"><use transform="matrix(0.06172839506172778,0,0,0.06172839506172778,0,0)" xlink:href="#aP"/><use transform="matrix(0.06172839506172778,0,0,0.06172839506172778,12.345679012345556,0)" xlink:href="#aL"/><use transform="matrix(0.06172839506172778,0,0,0.06172839506172778,24.691358024691112,0)" xlink:href="#aL"/><use transform="matrix(0.06172839506172778,0,0,0.06172839506172778,37.03703703703667,0)" xlink:href="#aR"/><use transform="matrix(0.06172839506172778,0,0,0.06172839506172778,41.91358024691316,0)" xlink:href="#aI"/><use transform="matrix(0.06172839506172778,0,0,0.06172839506172778,46.79012345678966,0)" xlink:href="#aT"/><use transform="matrix(0.06172839506172778,0,0,0.06172839506172778,57.90123456790066,0)" xlink:href="#aP"/><use transform="matrix(0.06172839506172778,0,0,0.06172839506172778,70.24691358024621,0)" xlink:href="#aD"/><use transform="matrix(0.06172839506172778,0,0,0.06172839506172778,76.41975308641899,0)" xlink:href="#aI"/><use transform="matrix(0.06172839506172778,0,0,0.06172839506172778,81.29629629629548,0)" xlink:href="#aE"/><use transform="matrix(0.06172839506172778,0,0,0.06172839506172778,93.64197530864104,0)" xlink:href="#aK"/></g><path fill="#333" d="M153-248C145-148 188 4 80 4 36 3 13-21 6-62l32-5c4 25 16 42 43 43 27 0 39-20 39-49v-147H72v-28h81" id="bl"/><g id="ad"><use transform="matrix(0.06172839506172778,0,0,0.06172839506172778,0,0)" xlink:href="#bl"/><use transform="matrix(0.06172839506172778,0,0,0.06172839506172778,11.111111111111,0)" xlink:href="#bh"/><use transform="matrix(0.06172839506172778,0,0,0.06172839506172778,25.925925925925668,0)" xlink:href="#bg"/><use transform="matrix(0.06172839506172778,0,0,0.06172839506172778,43.20987654320945,0)" xlink:href="#bd"/></g><path fill="#333" d="M87 75C49 33 22-17 22-94c0-76 28-126 65-167h31c-38 41-64 92-64 168S80 34 118 75H87" id="bm"/><g id="ae"><use transform="matrix(0.06172839506172778,0,0,0.06172839506172778,0,0)" xlink:href="#bm"/><use transform="matrix(0.06172839506172778,0,0,0.06172839506172778,7.345679012345606,0)" xlink:href="#aB"/><use transform="matrix(0.06172839506172778,0,0,0.06172839506172778,19.691358024691162,0)" xlink:href="#aK"/><use transform="matrix(0.06172839506172778,0,0,0.06172839506172778,32.03703703703672,0)" xlink:href="#aW"/><use transform="matrix(0.06172839506172778,0,0,0.06172839506172778,44.382716049382275,0)" xlink:href="#aG"/><use transform="matrix(0.06172839506172778,0,0,0.06172839506172778,56.72839506172783,0)" xlink:href="#aH"/><use transform="matrix(0.06172839506172778,0,0,0.06172839506172778,64.07407407407344,0)" xlink:href="#aZ"/><use transform="matrix(0.06172839506172778,0,0,0.06172839506172778,80.06172839506092,0)" xlink:href="#aH"/><use transform="matrix(0.06172839506172778,0,0,0.06172839506172778,87.40740740740654,0)" xlink:href="#aI"/><use transform="matrix(0.06172839506172778,0,0,0.06172839506172778,92.28395061728304,0)" xlink:href="#aD"/><use transform="matrix(0.06172839506172778,0,0,0.06172839506172778,98.45679012345582,0)" xlink:href="#aI"/><use transform="matrix(0.06172839506172778,0,0,0.06172839506172778,103.33333333333232,0)" xlink:href="#aK"/><use transform="matrix(0.06172839506172778,0,0,0.06172839506172778,115.67901234567788,0)" xlink:href="#aJ"/></g><path fill="#333" d="M33-261c38 41 65 92 65 168S71 34 33 75H2C39 34 66-17 66-93S39-220 2-261h31" id="bn"/><g id="af"><use transform="matrix(0.06172839506172778,0,0,0.06172839506172778,0,0)" xlink:href="#ba"/><use transform="matrix(0.06172839506172778,0,0,0.06172839506172778,12.345679012345556,0)" xlink:href="#aG"/><use transform="matrix(0.06172839506172778,0,0,0.06172839506172778,24.691358024691112,0)" xlink:href="#aJ"/><use transform="matrix(0.06172839506172778,0,0,0.06172839506172778,37.03703703703667,0)" xlink:href="#aI"/><use transform="matrix(0.06172839506172778,0,0,0.06172839506172778,41.91358024691316,0)" xlink:href="#aK"/><use transform="matrix(0.06172839506172778,0,0,0.06172839506172778,54.25925925925872,0)" xlink:href="#aC"/><use transform="matrix(0.06172839506172778,0,0,0.06172839506172778,65.37037037036973,0)" xlink:href="#bn"/></g><path fill="#333" d="M182-182c0 78-84 86-111 141h115V0H12c-6-101 99-100 120-180 1-22-12-31-33-32-23 0-32 14-35 34l-49-3c5-45 32-70 84-70 51 0 83 22 83 69" id="bo"/><use transform="matrix(0.12345679012345678,0,0,0.12345679012345678,0,0)" xlink:href="#bo" id="ag"/></defs></g></svg>
