<svg xmlns="http://www.w3.org/2000/svg" xmlns:xlink="http://www.w3.org/1999/xlink" width="1200" height="700" viewBox="0 0 1200 700"><g transform="translate(-300 -409)"><path d="M1416.1 609.86h-167.28c-3.8 0-6.88 3.43-6.88 7.95v49.03c0 4.73 3.08 8.17 6.88 8.17h167.28c3.8 0 6.88-3.44 6.88-8.17V617.8c0-4.5-2.9-7.94-6.88-7.94zm-158.95 57.18c-3.44 0-6.52-3.65-6.52-7.73s3.08-7.52 6.52-7.52c3.62 0 6.52 3.44 6.52 7.53 0 4.1-3.08 7.75-6.52 7.75zm152.43-3.22H1373c-1.43 0-2.16-.86-2.16-2.37 0-1.5.73-2.58 2.17-2.58h36.58c1.27 0 2.18 1.08 2.18 2.6 0 1.5-.9 2.35-2.18 2.35zm0-7.96H1373c-1.43 0-2.16-1.07-2.16-2.58 0-1.5.73-2.57 2.17-2.57h36.58c1.27 0 2.18 1.08 2.18 2.58s-.9 2.6-2.18 2.6zm0-8.17H1373c-1.43 0-2.16-.87-2.16-2.6 0-1.5.73-2.35 2.17-2.35h36.58c1.27 0 2.18.86 2.18 2.37 0 1.5-.9 2.57-2.18 2.57zM1416.1 534.82h-167.28c-3.8 0-6.88 3.65-6.88 8.17v49c0 4.52 3.08 8.18 6.88 8.18h167.28c3.8 0 6.88-3.65 6.88-8.17v-49c0-4.52-2.9-8.18-6.88-8.18zm-158.95 57.2c-3.44 0-6.52-3.45-6.52-7.53 0-4.1 3.08-7.54 6.52-7.54 3.62 0 6.52 3.44 6.52 7.52 0 4.1-3.08 7.53-6.52 7.53zm152.43-3.02H1373c-1.43 0-2.16-.86-2.16-2.58 0-1.5.73-2.37 2.17-2.37h36.58c1.27 0 2.18.87 2.18 2.37s-.9 2.58-2.18 2.58zm0-7.96H1373c-1.43 0-2.16-1.07-2.16-2.57 0-1.5.73-2.6 2.17-2.6h36.58c1.27 0 2.18 1.1 2.18 2.6s-.9 2.57-2.18 2.57zm0-8.16H1373c-1.43 0-2.16-1.08-2.16-2.6 0-1.5.73-2.56 2.17-2.56h36.58c1.27 0 2.18 1.07 2.18 2.57 0 1.5-.9 2.58-2.18 2.58zM1416.1 460h-167.28c-3.8 0-6.88 3.44-6.88 8.17v49.02c0 4.5 3.08 7.94 6.88 7.94h167.28c3.8 0 6.88-3.43 6.88-7.95v-49.03c0-4.52-2.9-8.17-6.88-8.17zm-158.95 57.2c-3.44 0-6.52-3.45-6.52-7.54 0-4.08 3.08-7.74 6.52-7.74 3.62 0 6.52 3.66 6.52 7.75 0 4.08-3.08 7.52-6.52 7.52zm152.43-3.02H1373c-1.43 0-2.16-1.07-2.16-2.58 0-1.5.73-2.58 2.17-2.58h36.58c1.27 0 2.18 1.08 2.18 2.58s-.9 2.58-2.18 2.58zm0-8.17H1373c-1.43 0-2.16-.85-2.16-2.57 0-1.5.73-2.37 2.17-2.37h36.58c1.27 0 2.18.87 2.18 2.37 0 1.72-.9 2.58-2.18 2.58zm0-7.94H1373c-1.43 0-2.16-1.08-2.16-2.58s.73-2.6 2.17-2.6h36.58c1.27 0 2.18 1.1 2.18 2.6 0 1.07-.9 2.57-2.18 2.57z" fill="#57b177"/><path d="M1199.77 678.8h264.46V740h-264.46z" fill="none"/><use xlink:href="#a" transform="matrix(1,0,0,1,1204.7693034387203,683.8053187231408) translate(8.611111111111086 31.333333333333336)"/><use xlink:href="#b" transform="matrix(1,0,0,1,1204.7693034387203,683.8053187231408) translate(202.01851851851853 31.333333333333336)"/><path d="M506.62 675c-31.4 0-57-22.78-57-50.73 0-27.95 25.6-50.75 57-50.75s57 22.8 57 50.75S538 675 506.6 675zm-13.97-26.44c4.17 12.47 9.98 18.7 13.97 18.7 4 0 10.53-5.58 13.97-18.7-4.72-.43-9.44-.86-13.98-.86-4.54 0-9.26.43-13.97.86zm-20.87 4.73c5.26 5.15 11.6 8.8 18.5 10.96-2.9-4.3-4.53-8.82-6.35-14.62-4.53 1.07-8.7 2.15-12.15 3.65zm58.07-3.66c-1.63 5.8-4 10.53-6.35 14.62 6.9-2.15 13.43-6.24 18.5-11.4-3.44-1.07-7.43-2.15-12.15-3.22zm-70.96-21.72c.53 6.67 2.9 12.47 7.07 18.7 4.53-2.14 9.8-3.65 15.6-4.72-1.08-4.73-1.08-9.25-1.63-13.98H458.9zm72.76 14.62c5.8.86 11.8 2.37 15.8 4.52 4-6.24 6.35-11.83 6.9-18.7h-21.42c.54 4.72-.2 9.02-1.28 14.18zm-42.46-14.62c0 4.1.54 8.4 1.27 12.47 5.26-.44 11.07-1.08 16.33-1.08 5.26 0 10.35.43 16.34 1.07.54-4.1 1.08-8.4 1.08-12.48H489.2zm65.7-8.17c-.55-7.3-3.45-13.97-8.17-20.2-4.54 2.14-9.8 3.65-15.07 4.72 1.1 4.52 1.64 9.9 1.64 15.48h21.6zm-30.3 0c0-4.73-.56-9.9-1.65-13.97-5.26.43-10.52 1.07-15.8 1.07-5.25 0-10.5-.64-15.6-1.07-1.26 4.08-1.8 9.24-1.8 13.97h34.84zm-44.1 0c0-5.16.53-10.53 1.62-15.48-5.8-1.07-10.53-2.58-15.06-4.73-4.72 6.24-7.63 12.9-8.7 20.2h22.13zm12.87-21.28c4.54.43 9.26 1.07 13.8 1.07 4.7 0 9.43-.64 13.97-1.07-4-12.05-9.8-17.2-13.98-17.2-4.53 0-10.34 5.37-13.8 17.2zm-20.5-4.73c3.44 1.07 7.62 2.58 11.8 3 1.62-5.15 3.44-9.24 6.34-12.9-7.07 2.15-12.87 5.17-18.14 9.9zm50.63-9.9c2.36 3.66 4.54 8.4 6.35 12.9 4.17-.85 8.17-1.93 11.8-3-6-4.73-11.8-7.75-18.15-9.9z" fill="#57b177"/><path d="M440.38 621.26c1.27-29.03 26.13-52.9 58.25-56.55v-94.16c0-5.8-5.26-10.54-11.8-10.54h-92.9c-6.55 0-11.8 4.73-11.8 10.54v201.9h87.3c-8.73-5.17-15.8-12.27-21.07-20.65h-48.82v-10.55h43.56c-1.1-3-1.63-6.66-2.36-10.32h-41.2V620.6h40.66v.44h.18v.22zM399.73 491.6h81.3v10.54h-81.3V491.6z" fill="#57b177"/><path d="M320 685h264.46v55.4H320z" fill="none"/><use xlink:href="#c" transform="matrix(1,0,0,1,325,690) translate(21.49999999999997 28.333333333333336)"/><use xlink:href="#d" transform="matrix(1,0,0,1,325,690) translate(87.49999999999999 28.333333333333336)"/><use xlink:href="#e" transform="matrix(1,0,0,1,325,690) translate(150.53703703703704 28.333333333333336)"/><path d="M806.67 480h374.05" stroke="#999" stroke-width="10" fill="none"/><path d="M1180.72 480l-14.26 4.64v-9.28z" stroke="#999" stroke-width="10" fill="#999"/><path d="M980 560H580" stroke="#999" stroke-width="10" fill="none"/><path d="M580 560l14.27-4.64v9.28z" stroke="#999" stroke-width="10" fill="#999"/><path d="M584 460h213v74.43H584z" fill="none"/><use xlink:href="#f" transform="matrix(1,0,0,1,589,465) translate(15.388888888889738 23.6111111111112)"/><use xlink:href="#g" transform="matrix(1,0,0,1,589,465) translate(81.56172839506192 23.6111111111112)"/><use xlink:href="#h" transform="matrix(1,0,0,1,589,465) translate(161.74691358024631 23.6111111111112)"/><use xlink:href="#i" transform="matrix(1,0,0,1,589,465) translate(36.68518518518583 50.2777777777776)"/><use xlink:href="#j" transform="matrix(1,0,0,1,589,465) translate(111.99382716049372 50.2777777777776)"/><path d="M540 460h80v61.67h-80z" fill="none"/><use xlink:href="#k" transform="matrix(1,0,0,1,545,465) translate(22.654320987654323 35.55555555555556)"/><path d="M980 536.33h80v63.34h-80z" fill="none"/><use xlink:href="#l" transform="matrix(1,0,0,1,985,541.3333333333334) translate(22.654320987654323 35.888888888888886)"/><path d="M1009 534h233v113.8h-233z" fill="none"/><use xlink:href="#m" transform="matrix(1,0,0,1,1014.0109585590125,539) translate(33.16666666666744 29.777777777778)"/><use xlink:href="#n" transform="matrix(1,0,0,1,1014.0109585590125,539) translate(98.53703703703717 29.777777777778)"/><use xlink:href="#o" transform="matrix(1,0,0,1,1014.0109585590125,539) translate(23.290123456790994 56.4444444444444)"/><use xlink:href="#p" transform="matrix(1,0,0,1,1014.0109585590125,539) translate(130.5740740740739 56.4444444444444)"/><use xlink:href="#j" transform="matrix(1,0,0,1,1014.0109585590125,539) translate(84.33950617283978 83.1111111111108)"/><path d="M890 690l320 180" stroke="#999" stroke-width="10" fill="none"/><path d="M1210 870l-14.7-2.95 4.54-8.08z" stroke="#999" stroke-width="10" fill="#999"/><path d="M540 636.67h80V700h-80z" fill="none"/><g><use xlink:href="#q" transform="matrix(1,0,0,1,545,641.6666666666666) translate(22.654320987654323 35.888888888888886)"/></g><path d="M593.5 642.2H860V740H593.5z" fill="none"/><g><use xlink:href="#f" transform="matrix(1,0,0,1,598.5054792795063,647.2129818575495) translate(12.141975308643126 35.1111111111112)"/><use xlink:href="#g" transform="matrix(1,0,0,1,598.5054792795063,647.2129818575495) translate(78.3148148148153 35.1111111111112)"/><use xlink:href="#r" transform="matrix(1,0,0,1,598.5054792795063,647.2129818575495) translate(158.49999999999972 35.1111111111112)"/><use xlink:href="#s" transform="matrix(1,0,0,1,598.5054792795063,647.2129818575495) translate(183.19135802469083 35.1111111111112)"/><use xlink:href="#t" transform="matrix(1,0,0,1,598.5054792795063,647.2129818575495) translate(2.759259259260517 61.7777777777776)"/><use xlink:href="#u" transform="matrix(1,0,0,1,598.5054792795063,647.2129818575495) translate(49.6111111111119 61.7777777777776)"/><use xlink:href="#v" transform="matrix(1,0,0,1,598.5054792795063,647.2129818575495) translate(148.2530864197529 61.7777777777776)"/></g><path d="M1416.33 909.86h-167.28c-3.8 0-6.88 3.43-6.88 7.95v49.03c0 4.73 3.08 8.17 6.88 8.17h167.28c3.8 0 6.88-3.44 6.88-8.17V917.8c0-4.5-2.88-7.94-6.87-7.94zm-158.95 57.18c-3.44 0-6.52-3.65-6.52-7.73s3.08-7.52 6.52-7.52c3.62 0 6.52 3.44 6.52 7.53 0 4.1-3.08 7.75-6.52 7.75zm152.44-3.22h-36.57c-1.45 0-2.18-.86-2.18-2.37 0-1.5.73-2.58 2.18-2.58h36.57c1.26 0 2.17 1.08 2.17 2.6 0 1.5-.92 2.35-2.18 2.35zm0-7.96h-36.57c-1.45 0-2.18-1.07-2.18-2.58 0-1.5.73-2.57 2.18-2.57h36.57c1.26 0 2.17 1.08 2.17 2.58s-.92 2.6-2.18 2.6zm0-8.17h-36.57c-1.45 0-2.18-.87-2.18-2.6 0-1.5.73-2.35 2.18-2.35h36.57c1.26 0 2.17.86 2.17 2.37 0 1.5-.92 2.57-2.18 2.57zM1416.33 834.82h-167.28c-3.8 0-6.88 3.65-6.88 8.17v49c0 4.52 3.08 8.18 6.88 8.18h167.28c3.8 0 6.88-3.65 6.88-8.17v-49c0-4.52-2.88-8.18-6.87-8.18zm-158.95 57.2c-3.44 0-6.52-3.45-6.52-7.53 0-4.1 3.08-7.54 6.52-7.54 3.62 0 6.52 3.44 6.52 7.52 0 4.1-3.08 7.53-6.52 7.53zm152.44-3.02h-36.57c-1.45 0-2.18-.86-2.18-2.58 0-1.5.73-2.37 2.18-2.37h36.57c1.26 0 2.17.87 2.17 2.37s-.92 2.58-2.18 2.58zm0-7.96h-36.57c-1.45 0-2.18-1.07-2.18-2.57 0-1.5.73-2.6 2.18-2.6h36.57c1.26 0 2.17 1.1 2.17 2.6s-.92 2.57-2.18 2.57zm0-8.16h-36.57c-1.45 0-2.18-1.08-2.18-2.6 0-1.5.73-2.56 2.18-2.56h36.57c1.26 0 2.17 1.07 2.17 2.57 0 1.5-.92 2.58-2.18 2.58zM1416.33 760h-167.28c-3.8 0-6.88 3.44-6.88 8.17v49.02c0 4.5 3.08 7.94 6.88 7.94h167.28c3.8 0 6.88-3.43 6.88-7.95v-49.03c0-4.5-2.88-8.17-6.87-8.17zm-158.95 57.2c-3.44 0-6.52-3.45-6.52-7.54 0-4.08 3.08-7.74 6.52-7.74 3.62 0 6.52 3.66 6.52 7.75 0 4.08-3.08 7.52-6.52 7.52zm152.44-3.02h-36.57c-1.45 0-2.18-1.07-2.18-2.58 0-1.5.73-2.58 2.18-2.58h36.57c1.26 0 2.17 1.08 2.17 2.58s-.92 2.58-2.18 2.58zm0-8.17h-36.57c-1.45 0-2.18-.85-2.18-2.57 0-1.5.73-2.36 2.18-2.36h36.57c1.26 0 2.17.85 2.17 2.36 0 1.72-.92 2.58-2.18 2.58zm0-7.95h-36.57c-1.45 0-2.18-1.07-2.18-2.57 0-1.5.73-2.6 2.18-2.6h36.57c1.26 0 2.17 1.1 2.17 2.6 0 1.07-.92 2.57-2.18 2.57z" fill="#57b177"/><path d="M1200 1000h264.46v74H1200z" fill="none"/><g><use xlink:href="#w" transform="matrix(1,0,0,1,1205,1005) translate(68.38888888888889 21.333333333333336)"/><use xlink:href="#x" transform="matrix(1,0,0,1,1205,1005) translate(29.240740740740733 53.333333333333336)"/><use xlink:href="#y" transform="matrix(1,0,0,1,1205,1005) translate(181.38888888888889 53.333333333333336)"/></g><defs><path fill="#333" d="M199 0l-22-63H83L61 0H9l90-248h61L250 0h-51zm-33-102l-36-108c-10 38-24 72-36 108h72" id="z"/><path fill="#333" d="M85 4C-2 5 27-109 22-190h50c7 57-23 150 33 157 60-5 35-97 40-157h50l1 190h-47c-2-12 1-28-3-38-12 25-28 42-61 42" id="A"/><path fill="#333" d="M115-3C79 11 28 4 28-45v-112H4v-33h27l15-45h31v45h36v33H77v99c-1 23 16 31 38 25v30" id="B"/><path fill="#333" d="M114-157C55-157 80-60 75 0H25v-261h50l-1 109c12-26 28-41 61-42 86-1 58 113 63 194h-50c-7-57 23-157-34-157" id="C"/><path fill="#333" d="M185-48c-13 30-37 53-82 52C43 2 14-33 14-96s30-98 90-98c62 0 83 45 84 108H66c0 31 8 55 39 56 18 0 30-7 34-22zm-45-69c5-46-57-63-70-21-2 6-4 13-4 21h74" id="D"/><path fill="#333" d="M135-194c87-1 58 113 63 194h-50c-7-57 23-157-34-157-59 0-34 97-39 157H25l-1-190h47c2 12-1 28 3 38 12-26 28-41 61-42" id="E"/><path fill="#333" d="M25-224v-37h50v37H25zM25 0v-190h50V0H25" id="F"/><path fill="#333" d="M190-63c-7 42-38 67-86 67-59 0-84-38-90-98-12-110 154-137 174-36l-49 2c-2-19-15-32-35-32-30 0-35 28-38 64-6 74 65 87 74 30" id="G"/><path fill="#333" d="M133-34C117-15 103 5 69 4 32 3 11-16 11-54c-1-60 55-63 116-61 1-26-3-47-28-47-18 1-26 9-28 27l-52-2c7-38 36-58 82-57s74 22 75 68l1 82c-1 14 12 18 25 15v27c-30 8-71 5-69-32zm-48 3c29 0 43-24 42-57-32 0-66-3-65 30 0 17 8 27 23 27" id="H"/><path fill="#333" d="M110-194c64 0 96 36 96 99 0 64-35 99-97 99-61 0-95-36-95-99 0-62 34-99 96-99zm-1 164c35 0 45-28 45-65 0-40-10-65-43-65-34 0-45 26-45 65 0 36 10 65 43 65" id="I"/><g id="a"><use transform="matrix(0.07407407407407408,0,0,0.07407407407407408,0,0)" xlink:href="#z"/><use transform="matrix(0.07407407407407408,0,0,0.07407407407407408,19.185185185185187,0)" xlink:href="#A"/><use transform="matrix(0.07407407407407408,0,0,0.07407407407407408,35.40740740740741,0)" xlink:href="#B"/><use transform="matrix(0.07407407407407408,0,0,0.07407407407407408,44.22222222222223,0)" xlink:href="#C"/><use transform="matrix(0.07407407407407408,0,0,0.07407407407407408,60.444444444444464,0)" xlink:href="#D"/><use transform="matrix(0.07407407407407408,0,0,0.07407407407407408,75.25925925925927,0)" xlink:href="#E"/><use transform="matrix(0.07407407407407408,0,0,0.07407407407407408,91.4814814814815,0)" xlink:href="#B"/><use transform="matrix(0.07407407407407408,0,0,0.07407407407407408,100.2962962962963,0)" xlink:href="#F"/><use transform="matrix(0.07407407407407408,0,0,0.07407407407407408,107.70370370370372,0)" xlink:href="#G"/><use transform="matrix(0.07407407407407408,0,0,0.07407407407407408,122.51851851851853,0)" xlink:href="#H"/><use transform="matrix(0.07407407407407408,0,0,0.07407407407407408,137.33333333333334,0)" xlink:href="#B"/><use transform="matrix(0.07407407407407408,0,0,0.07407407407407408,146.14814814814815,0)" xlink:href="#F"/><use transform="matrix(0.07407407407407408,0,0,0.07407407407407408,153.55555555555557,0)" xlink:href="#I"/><use transform="matrix(0.07407407407407408,0,0,0.07407407407407408,169.7777777777778,0)" xlink:href="#E"/></g><path fill="#333" d="M24-248c93 1 206-16 204 79-1 75-69 88-152 82V0H24v-248zm52 121c47 0 100 7 100-41 0-47-54-39-100-39v80" id="J"/><path fill="#333" d="M24 0v-248h52V0H24" id="K"/><g id="b"><use transform="matrix(0.07407407407407408,0,0,0.07407407407407408,0,0)" xlink:href="#z"/><use transform="matrix(0.07407407407407408,0,0,0.07407407407407408,19.185185185185187,0)" xlink:href="#J"/><use transform="matrix(0.07407407407407408,0,0,0.07407407407407408,36.96296296296296,0)" xlink:href="#K"/></g><path fill="#333" d="M146-102V0H94v-102L6-248h54l60 105 60-105h54" id="L"/><path fill="#333" d="M135-150c-39-12-60 13-60 57V0H25l-1-190h47c2 13-1 29 3 40 6-28 27-53 61-41v41" id="M"/><g id="c"><use transform="matrix(0.07407407407407408,0,0,0.07407407407407408,0,0)" xlink:href="#L"/><use transform="matrix(0.07407407407407408,0,0,0.07407407407407408,15.777777777777779,0)" xlink:href="#I"/><use transform="matrix(0.07407407407407408,0,0,0.07407407407407408,32,0)" xlink:href="#A"/><use transform="matrix(0.07407407407407408,0,0,0.07407407407407408,48.22222222222223,0)" xlink:href="#M"/></g><path fill="#333" d="M275 0h-61l-44-196L126 0H64L0-248h53L97-49l45-199h58l43 199 44-199h52" id="N"/><path fill="#333" d="M135-194c52 0 70 43 70 98 0 56-19 99-73 100-30 1-46-15-58-35L72 0H24l1-261h50v104c11-23 29-37 60-37zM114-30c31 0 40-27 40-66 0-37-7-63-39-63s-41 28-41 65c0 36 8 64 40 64" id="O"/><g id="d"><use transform="matrix(0.07407407407407408,0,0,0.07407407407407408,0,0)" xlink:href="#N"/><use transform="matrix(0.07407407407407408,0,0,0.07407407407407408,24.592592592592595,0)" xlink:href="#D"/><use transform="matrix(0.07407407407407408,0,0,0.07407407407407408,39.40740740740741,0)" xlink:href="#O"/></g><path fill="#333" d="M169-182c-1-43-94-46-97-3 18 66 151 10 154 114 3 95-165 93-204 36-6-8-10-19-12-30l50-8c3 46 112 56 116 5-17-69-150-10-154-114-4-87 153-88 188-35 5 8 8 18 10 28" id="P"/><path fill="#333" d="M128 0H69L1-190h53L99-40l48-150h52" id="Q"/><g id="e"><use transform="matrix(0.07407407407407408,0,0,0.07407407407407408,0,0)" xlink:href="#P"/><use transform="matrix(0.07407407407407408,0,0,0.07407407407407408,17.77777777777778,0)" xlink:href="#D"/><use transform="matrix(0.07407407407407408,0,0,0.07407407407407408,32.592592592592595,0)" xlink:href="#M"/><use transform="matrix(0.07407407407407408,0,0,0.07407407407407408,42.96296296296297,0)" xlink:href="#Q"/><use transform="matrix(0.07407407407407408,0,0,0.07407407407407408,57.777777777777786,0)" xlink:href="#D"/><use transform="matrix(0.07407407407407408,0,0,0.07407407407407408,72.59259259259261,0)" xlink:href="#M"/></g><path fill="#333" d="M30-248c87 1 191-15 191 75 0 78-77 80-158 76V0H30v-248zm33 125c57 0 124 11 124-50 0-59-68-47-124-48v98" id="R"/><path fill="#333" d="M140-251c81 0 123 46 123 126C263-46 219 4 140 4 59 4 17-45 17-125s42-126 123-126zm0 227c63 0 89-41 89-101s-29-99-89-99c-61 0-89 39-89 99S79-25 140-24" id="S"/><path fill="#333" d="M185-189c-5-48-123-54-124 2 14 75 158 14 163 119 3 78-121 87-175 55-17-10-28-26-33-46l33-7c5 56 141 63 141-1 0-78-155-14-162-118-5-82 145-84 179-34 5 7 8 16 11 25" id="T"/><path fill="#333" d="M127-220V0H93v-220H8v-28h204v28h-85" id="U"/><g id="f"><use transform="matrix(0.06172839506172778,0,0,0.06172839506172778,0,0)" xlink:href="#R"/><use transform="matrix(0.06172839506172778,0,0,0.06172839506172778,14.814814814814667,0)" xlink:href="#S"/><use transform="matrix(0.06172839506172778,0,0,0.06172839506172778,32.098765432098446,0)" xlink:href="#T"/><use transform="matrix(0.06172839506172778,0,0,0.06172839506172778,46.913580246913114,0)" xlink:href="#U"/></g><path fill="#333" d="M114-163C36-179 61-72 57 0H25l-1-190h30c1 12-1 29 2 39 6-27 23-49 58-41v29" id="V"/><path fill="#333" d="M100-194c63 0 86 42 84 106H49c0 40 14 67 53 68 26 1 43-12 49-29l28 8c-11 28-37 45-77 45C44 4 14-33 15-96c1-61 26-98 85-98zm52 81c6-60-76-77-97-28-3 7-6 17-6 28h103" id="W"/><path fill="#333" d="M145-31C134-9 116 4 85 4 32 4 16-35 15-94c0-59 17-99 70-100 32-1 48 14 60 33 0-11-1-24 2-32h30l-1 268h-32zM93-21c41 0 51-33 51-76s-8-73-50-73c-40 0-46 35-46 75s5 74 45 74" id="X"/><path fill="#333" d="M84 4C-5 8 30-112 23-190h32v120c0 31 7 50 39 49 72-2 45-101 50-169h31l1 190h-30c-1-10 1-25-2-33-11 22-28 36-60 37" id="Y"/><path fill="#333" d="M135-143c-3-34-86-38-87 0 15 53 115 12 119 90S17 21 10-45l28-5c4 36 97 45 98 0-10-56-113-15-118-90-4-57 82-63 122-42 12 7 21 19 24 35" id="Z"/><path fill="#333" d="M59-47c-2 24 18 29 38 22v24C64 9 27 4 27-40v-127H5v-23h24l9-43h21v43h35v23H59v120" id="aa"/><g id="g"><use transform="matrix(0.06172839506172778,0,0,0.06172839506172778,0,0)" xlink:href="#V"/><use transform="matrix(0.06172839506172778,0,0,0.06172839506172778,7.345679012345606,0)" xlink:href="#W"/><use transform="matrix(0.06172839506172778,0,0,0.06172839506172778,19.691358024691162,0)" xlink:href="#X"/><use transform="matrix(0.06172839506172778,0,0,0.06172839506172778,32.03703703703672,0)" xlink:href="#Y"/><use transform="matrix(0.06172839506172778,0,0,0.06172839506172778,44.382716049382275,0)" xlink:href="#W"/><use transform="matrix(0.06172839506172778,0,0,0.06172839506172778,56.72839506172783,0)" xlink:href="#Z"/><use transform="matrix(0.06172839506172778,0,0,0.06172839506172778,67.83950617283884,0)" xlink:href="#aa"/></g><path fill="#333" d="M101-234c-31-9-42 10-38 44h38v23H63V0H32v-167H5v-23h27c-7-52 17-82 69-68v24" id="ab"/><path fill="#333" d="M100-194c62-1 85 37 85 99 1 63-27 99-86 99S16-35 15-95c0-66 28-99 85-99zM99-20c44 1 53-31 53-75 0-43-8-75-51-75s-53 32-53 75 10 74 51 75" id="ac"/><g id="h"><use transform="matrix(0.06172839506172778,0,0,0.06172839506172778,0,0)" xlink:href="#ab"/><use transform="matrix(0.06172839506172778,0,0,0.06172839506172778,6.172839506172778,0)" xlink:href="#ac"/><use transform="matrix(0.06172839506172778,0,0,0.06172839506172778,18.518518518518334,0)" xlink:href="#V"/></g><path fill="#333" d="M141-36C126-15 110 5 73 4 37 3 15-17 15-53c-1-64 63-63 125-63 3-35-9-54-41-54-24 1-41 7-42 31l-33-3c5-37 33-52 76-52 45 0 72 20 72 64v82c-1 20 7 32 28 27v20c-31 9-61-2-59-35zM48-53c0 20 12 33 32 33 41-3 63-29 60-74-43 2-92-5-92 41" id="ad"/><path fill="#333" d="M96-169c-40 0-48 33-48 73s9 75 48 75c24 0 41-14 43-38l32 2c-6 37-31 61-74 61-59 0-76-41-82-99-10-93 101-131 147-64 4 7 5 14 7 22l-32 3c-4-21-16-35-41-35" id="ae"/><g id="i"><use transform="matrix(0.06172839506172778,0,0,0.06172839506172778,0,0)" xlink:href="#ad"/><use transform="matrix(0.06172839506172778,0,0,0.06172839506172778,12.345679012345556,0)" xlink:href="#ae"/><use transform="matrix(0.06172839506172778,0,0,0.06172839506172778,23.456790123456557,0)" xlink:href="#ae"/><use transform="matrix(0.06172839506172778,0,0,0.06172839506172778,34.56790123456756,0)" xlink:href="#W"/><use transform="matrix(0.06172839506172778,0,0,0.06172839506172778,46.913580246913114,0)" xlink:href="#Z"/><use transform="matrix(0.06172839506172778,0,0,0.06172839506172778,58.024691358024114,0)" xlink:href="#Z"/></g><path fill="#333" d="M143 0L79-87 56-68V0H24v-261h32v163l83-92h37l-77 82L181 0h-38" id="af"/><path fill="#333" d="M117-194c89-4 53 116 60 194h-32v-121c0-31-8-49-39-48C34-167 62-67 57 0H25l-1-190h30c1 10-1 24 2 32 11-22 29-35 61-36" id="ag"/><g id="j"><use transform="matrix(0.06172839506172778,0,0,0.06172839506172778,0,0)" xlink:href="#aa"/><use transform="matrix(0.06172839506172778,0,0,0.06172839506172778,6.172839506172778,0)" xlink:href="#ac"/><use transform="matrix(0.06172839506172778,0,0,0.06172839506172778,18.518518518518334,0)" xlink:href="#af"/><use transform="matrix(0.06172839506172778,0,0,0.06172839506172778,29.629629629629335,0)" xlink:href="#W"/><use transform="matrix(0.06172839506172778,0,0,0.06172839506172778,41.97530864197489,0)" xlink:href="#ag"/></g><path fill="#333" d="M23 0v-37h61v-169l-59 37v-38l62-41h46v211h57V0H23" id="ah"/><use transform="matrix(0.12345679012345678,0,0,0.12345679012345678,0,0)" xlink:href="#ah" id="k"/><path fill="#333" d="M182-182c0 78-84 86-111 141h115V0H12c-6-101 99-100 120-180 1-22-12-31-33-32-23 0-32 14-35 34l-49-3c5-45 32-70 84-70 51 0 83 22 83 69" id="ai"/><use transform="matrix(0.12345679012345678,0,0,0.12345679012345678,0,0)" xlink:href="#ai" id="l"/><path fill="#333" d="M153-248C145-148 188 4 80 4 36 3 13-21 6-62l32-5c4 25 16 42 43 43 27 0 39-20 39-49v-147H72v-28h81" id="aj"/><path fill="#333" d="M190 0L58-211 59 0H30v-248h39L202-35l-2-213h31V0h-41" id="ak"/><g id="m"><use transform="matrix(0.06172839506172778,0,0,0.06172839506172778,0,0)" xlink:href="#aj"/><use transform="matrix(0.06172839506172778,0,0,0.06172839506172778,11.111111111111,0)" xlink:href="#T"/><use transform="matrix(0.06172839506172778,0,0,0.06172839506172778,25.925925925925668,0)" xlink:href="#S"/><use transform="matrix(0.06172839506172778,0,0,0.06172839506172778,43.20987654320945,0)" xlink:href="#ak"/></g><path fill="#333" d="M115-194c55 1 70 41 70 98S169 2 115 4C84 4 66-9 55-30l1 105H24l-1-265h31l2 30c10-21 28-34 59-34zm-8 174c40 0 45-34 45-75s-6-73-45-74c-42 0-51 32-51 76 0 43 10 73 51 73" id="al"/><g id="n"><use transform="matrix(0.06172839506172778,0,0,0.06172839506172778,0,0)" xlink:href="#V"/><use transform="matrix(0.06172839506172778,0,0,0.06172839506172778,7.345679012345606,0)" xlink:href="#W"/><use transform="matrix(0.06172839506172778,0,0,0.06172839506172778,19.691358024691162,0)" xlink:href="#Z"/><use transform="matrix(0.06172839506172778,0,0,0.06172839506172778,30.802469135802163,0)" xlink:href="#al"/><use transform="matrix(0.06172839506172778,0,0,0.06172839506172778,43.14814814814772,0)" xlink:href="#ac"/><use transform="matrix(0.06172839506172778,0,0,0.06172839506172778,55.493827160493275,0)" xlink:href="#ag"/><use transform="matrix(0.06172839506172778,0,0,0.06172839506172778,67.83950617283884,0)" xlink:href="#Z"/><use transform="matrix(0.06172839506172778,0,0,0.06172839506172778,78.95061728394984,0)" xlink:href="#W"/></g><path fill="#333" d="M24-231v-30h32v30H24zM24 0v-190h32V0H24" id="am"/><path fill="#333" d="M177-190C167-65 218 103 67 71c-23-6-38-20-44-43l32-5c15 47 100 32 89-28v-30C133-14 115 1 83 1 29 1 15-40 15-95c0-56 16-97 71-98 29-1 48 16 59 35 1-10 0-23 2-32h30zM94-22c36 0 50-32 50-73 0-42-14-75-50-75-39 0-46 34-46 75s6 73 46 73" id="an"/><g id="o"><use transform="matrix(0.06172839506172778,0,0,0.06172839506172778,0,0)" xlink:href="#ae"/><use transform="matrix(0.06172839506172778,0,0,0.06172839506172778,11.111111111111,0)" xlink:href="#ac"/><use transform="matrix(0.06172839506172778,0,0,0.06172839506172778,23.456790123456557,0)" xlink:href="#ag"/><use transform="matrix(0.06172839506172778,0,0,0.06172839506172778,35.80246913580211,0)" xlink:href="#aa"/><use transform="matrix(0.06172839506172778,0,0,0.06172839506172778,41.97530864197489,0)" xlink:href="#ad"/><use transform="matrix(0.06172839506172778,0,0,0.06172839506172778,54.32098765432045,0)" xlink:href="#am"/><use transform="matrix(0.06172839506172778,0,0,0.06172839506172778,59.19753086419694,0)" xlink:href="#ag"/><use transform="matrix(0.06172839506172778,0,0,0.06172839506172778,71.5432098765425,0)" xlink:href="#am"/><use transform="matrix(0.06172839506172778,0,0,0.06172839506172778,76.419753086419,0)" xlink:href="#ag"/><use transform="matrix(0.06172839506172778,0,0,0.06172839506172778,88.76543209876456,0)" xlink:href="#an"/></g><g id="p"><use transform="matrix(0.06172839506172778,0,0,0.06172839506172778,0,0)" xlink:href="#ad"/><use transform="matrix(0.06172839506172778,0,0,0.06172839506172778,12.345679012345556,0)" xlink:href="#ae"/><use transform="matrix(0.06172839506172778,0,0,0.06172839506172778,23.456790123456557,0)" xlink:href="#ae"/><use transform="matrix(0.06172839506172778,0,0,0.06172839506172778,34.56790123456756,0)" xlink:href="#W"/><use transform="matrix(0.06172839506172778,0,0,0.06172839506172778,46.913580246913114,0)" xlink:href="#Z"/><use transform="matrix(0.06172839506172778,0,0,0.06172839506172778,58.024691358024114,0)" xlink:href="#Z"/></g><path fill="#333" d="M128-127c34 4 56 21 59 58 7 91-148 94-172 28-4-9-6-17-7-26l51-5c1 24 16 35 40 36 23 0 39-12 38-36-1-31-31-36-65-34v-40c32 2 59-3 59-33 0-20-13-33-34-33s-33 13-35 32l-50-3c6-44 37-68 86-68 50 0 83 20 83 66 0 35-22 52-53 58" id="ao"/><use transform="matrix(0.12345679012345678,0,0,0.12345679012345678,0,0)" xlink:href="#ao" id="q"/><g id="r"><use transform="matrix(0.06172839506172778,0,0,0.06172839506172778,0,0)" xlink:href="#aa"/><use transform="matrix(0.06172839506172778,0,0,0.06172839506172778,6.172839506172778,0)" xlink:href="#ac"/></g><g id="s"><use transform="matrix(0.06172839506172778,0,0,0.06172839506172778,0,0)" xlink:href="#ae"/><use transform="matrix(0.06172839506172778,0,0,0.06172839506172778,11.111111111111,0)" xlink:href="#V"/><use transform="matrix(0.06172839506172778,0,0,0.06172839506172778,18.456790123456607,0)" xlink:href="#W"/><use transform="matrix(0.06172839506172778,0,0,0.06172839506172778,30.802469135802163,0)" xlink:href="#ad"/><use transform="matrix(0.06172839506172778,0,0,0.06172839506172778,43.14814814814772,0)" xlink:href="#aa"/><use transform="matrix(0.06172839506172778,0,0,0.06172839506172778,49.3209876543205,0)" xlink:href="#W"/></g><path fill="#333" d="M206 0h-36l-40-164L89 0H53L-1-190h32L70-26l43-164h34l41 164 42-164h31" id="ap"/><g id="t"><use transform="matrix(0.06172839506172778,0,0,0.06172839506172778,0,0)" xlink:href="#ag"/><use transform="matrix(0.06172839506172778,0,0,0.06172839506172778,12.345679012345556,0)" xlink:href="#W"/><use transform="matrix(0.06172839506172778,0,0,0.06172839506172778,24.691358024691112,0)" xlink:href="#ap"/></g><path fill="#333" d="M210-169c-67 3-38 105-44 169h-31v-121c0-29-5-50-35-48C34-165 62-65 56 0H25l-1-190h30c1 10-1 24 2 32 10-44 99-50 107 0 11-21 27-35 58-36 85-2 47 119 55 194h-31v-121c0-29-5-49-35-48" id="aq"/><path fill="#333" d="M106-169C34-169 62-67 57 0H25v-261h32l-1 103c12-21 28-36 61-36 89 0 53 116 60 194h-32v-121c2-32-8-49-39-48" id="ar"/><g id="u"><use transform="matrix(0.06172839506172778,0,0,0.06172839506172778,0,0)" xlink:href="#aq"/><use transform="matrix(0.06172839506172778,0,0,0.06172839506172778,18.456790123456607,0)" xlink:href="#W"/><use transform="matrix(0.06172839506172778,0,0,0.06172839506172778,30.802469135802163,0)" xlink:href="#V"/><use transform="matrix(0.06172839506172778,0,0,0.06172839506172778,38.14814814814777,0)" xlink:href="#ae"/><use transform="matrix(0.06172839506172778,0,0,0.06172839506172778,49.25925925925877,0)" xlink:href="#ar"/><use transform="matrix(0.06172839506172778,0,0,0.06172839506172778,61.604938271604325,0)" xlink:href="#ad"/><use transform="matrix(0.06172839506172778,0,0,0.06172839506172778,73.95061728394988,0)" xlink:href="#ag"/><use transform="matrix(0.06172839506172778,0,0,0.06172839506172778,86.29629629629544,0)" xlink:href="#aa"/></g><path fill="#333" d="M24 0v-261h32V0H24" id="as"/><g id="v"><use transform="matrix(0.06172839506172778,0,0,0.06172839506172778,0,0)" xlink:href="#ad"/><use transform="matrix(0.06172839506172778,0,0,0.06172839506172778,12.345679012345556,0)" xlink:href="#al"/><use transform="matrix(0.06172839506172778,0,0,0.06172839506172778,24.691358024691112,0)" xlink:href="#al"/><use transform="matrix(0.06172839506172778,0,0,0.06172839506172778,37.03703703703667,0)" xlink:href="#as"/><use transform="matrix(0.06172839506172778,0,0,0.06172839506172778,41.91358024691316,0)" xlink:href="#am"/><use transform="matrix(0.06172839506172778,0,0,0.06172839506172778,46.79012345678966,0)" xlink:href="#ae"/><use transform="matrix(0.06172839506172778,0,0,0.06172839506172778,57.90123456790066,0)" xlink:href="#ad"/><use transform="matrix(0.06172839506172778,0,0,0.06172839506172778,70.24691358024621,0)" xlink:href="#aa"/><use transform="matrix(0.06172839506172778,0,0,0.06172839506172778,76.41975308641899,0)" xlink:href="#am"/><use transform="matrix(0.06172839506172778,0,0,0.06172839506172778,81.29629629629548,0)" xlink:href="#ac"/><use transform="matrix(0.06172839506172778,0,0,0.06172839506172778,93.64197530864104,0)" xlink:href="#ag"/></g><path fill="#333" d="M230 0l2-204L168 0h-37L68-204 70 0H24v-248h70l56 185 57-185h69V0h-46" id="at"/><g id="w"><use transform="matrix(0.07407407407407408,0,0,0.07407407407407408,0,0)" xlink:href="#at"/><use transform="matrix(0.07407407407407408,0,0,0.07407407407407408,22.148148148148152,0)" xlink:href="#D"/><use transform="matrix(0.07407407407407408,0,0,0.07407407407407408,36.96296296296297,0)" xlink:href="#M"/><use transform="matrix(0.07407407407407408,0,0,0.07407407407407408,47.33333333333334,0)" xlink:href="#G"/><use transform="matrix(0.07407407407407408,0,0,0.07407407407407408,62.14814814814816,0)" xlink:href="#C"/><use transform="matrix(0.07407407407407408,0,0,0.07407407407407408,78.37037037037038,0)" xlink:href="#H"/><use transform="matrix(0.07407407407407408,0,0,0.07407407407407408,93.18518518518519,0)" xlink:href="#E"/><use transform="matrix(0.07407407407407408,0,0,0.07407407407407408,109.40740740740742,0)" xlink:href="#B"/></g><path fill="#333" d="M135-194c53 0 70 44 70 98 0 56-19 98-73 100-31 1-45-17-59-34 3 33 2 69 2 105H25l-1-265h48c2 10 0 23 3 31 11-24 29-35 60-35zM114-30c33 0 39-31 40-66 0-38-9-64-40-64-56 0-55 130 0 130" id="au"/><path fill="#333" d="M25 0v-261h50V0H25" id="av"/><g id="x"><use transform="matrix(0.07407407407407408,0,0,0.07407407407407408,0,0)" xlink:href="#z"/><use transform="matrix(0.07407407407407408,0,0,0.07407407407407408,19.185185185185187,0)" xlink:href="#au"/><use transform="matrix(0.07407407407407408,0,0,0.07407407407407408,35.40740740740741,0)" xlink:href="#au"/><use transform="matrix(0.07407407407407408,0,0,0.07407407407407408,51.62962962962963,0)" xlink:href="#av"/><use transform="matrix(0.07407407407407408,0,0,0.07407407407407408,59.03703703703704,0)" xlink:href="#F"/><use transform="matrix(0.07407407407407408,0,0,0.07407407407407408,66.44444444444444,0)" xlink:href="#G"/><use transform="matrix(0.07407407407407408,0,0,0.07407407407407408,81.25925925925927,0)" xlink:href="#H"/><use transform="matrix(0.07407407407407408,0,0,0.07407407407407408,96.07407407407408,0)" xlink:href="#B"/><use transform="matrix(0.07407407407407408,0,0,0.07407407407407408,104.88888888888889,0)" xlink:href="#F"/><use transform="matrix(0.07407407407407408,0,0,0.07407407407407408,112.29629629629629,0)" xlink:href="#I"/><use transform="matrix(0.07407407407407408,0,0,0.07407407407407408,128.5185185185185,0)" xlink:href="#E"/></g><g id="y"><use transform="matrix(0.07407407407407408,0,0,0.07407407407407408,0,0)" xlink:href="#z"/><use transform="matrix(0.07407407407407408,0,0,0.07407407407407408,19.185185185185187,0)" xlink:href="#J"/><use transform="matrix(0.07407407407407408,0,0,0.07407407407407408,36.96296296296296,0)" xlink:href="#K"/></g></defs></g></svg>
